{"glyphs":{":":{"x_min":0,"x_max":154,"ha":154,"o":"m 79 333 b 89 335 98 343 98 354 b 97 363 97 371 98 380 b 99 388 90 393 82 393 b 74 393 66 386 64 378 b 61 368 60 358 59 348 b 59 338 70 331 79 333 z m 103 173 b 101 181 100 190 95 196 b 93 198 91 200 89 201 b 88 202 87 202 84 203 b 84 203 83 203 82 203 b 80 204 78 204 76 203 b 71 202 67 201 64 198 b 57 193 52 184 51 175 b 49 162 50 147 54 134 b 61 109 101 121 103 142 b 105 153 105 162 103 173 z"},"$":{"x_min":0,"x_max":475,"ha":475,"o":"m 376 156 b 343 193 305 226 267 257 b 263 261 258 264 254 268 b 258 347 264 426 273 504 b 306 495 334 472 356 444 b 371 425 413 446 401 470 b 377 519 332 552 281 565 b 286 600 291 636 297 671 b 300 693 268 693 264 674 b 258 639 253 605 248 570 b 229 571 211 570 192 565 b 98 542 34 449 53 353 b 70 268 147 217 213 167 b 212 100 212 33 215 -34 b 163 -15 122 34 129 94 b 132 116 99 116 96 97 b 85 16 140 -54 217 -74 b 218 -99 220 -123 222 -148 b 224 -172 260 -163 259 -142 b 258 -121 257 -101 256 -80 b 328 -85 412 -58 424 23 b 431 74 408 119 376 156 z m 219 297 b 172 338 129 390 153 451 b 166 484 202 506 240 508 b 231 438 224 367 219 297 z m 324 -27 b 303 -40 278 -44 254 -43 b 252 18 250 78 251 139 b 299 101 406 20 324 -27 z"},"?":{"x_min":0,"x_max":411,"ha":411,"o":"m 215 578 b 144 569 79 516 56 448 b 45 414 48 373 72 345 b 96 319 134 303 168 312 b 188 317 191 348 168 344 b 104 332 100 416 122 455 b 146 495 197 526 244 515 b 266 510 285 496 287 473 b 290 447 276 418 267 394 b 247 341 222 289 200 236 b 174 173 149 108 149 40 b 149 -15 233 -1 240 44 b 253 114 274 181 300 247 b 327 314 358 387 361 460 b 364 541 289 587 215 578 z m 207 -23 b 197 -16 187 -18 177 -24 b 164 -32 158 -48 155 -62 b 152 -74 150 -85 150 -97 b 149 -110 161 -121 174 -122 b 188 -122 202 -115 209 -102 b 215 -89 218 -77 220 -63 b 221 -49 221 -30 207 -23 z"},"<":{"x_min":0,"x_max":359,"ha":359,"o":"m 277 193 b 248 196 219 197 190 199 b 184 199 178 199 172 200 b 180 205 187 210 194 214 b 218 230 248 245 264 268 b 270 276 271 288 260 292 b 227 304 184 286 155 271 b 120 253 70 229 54 191 b 45 169 51 146 70 132 b 87 121 109 119 129 118 b 172 116 215 114 258 114 b 280 114 302 128 308 150 b 313 172 298 191 277 193 z m 127 202 b 125 202 126 203 127 202 z m 132 169 b 132 168 132 168 132 169 z"},"'":{"x_min":0,"x_max":188,"ha":188,"o":"m 111 588 b 92 589 76 575 70 558 b 63 538 58 519 54 498 b 51 480 46 457 54 439 b 62 424 81 423 92 434 b 93 435 94 436 94 436 b 97 439 100 443 102 447 b 109 458 112 471 115 483 b 122 507 129 530 136 553 b 142 570 128 586 111 588 z"},"=":{"x_min":0,"x_max":277,"ha":277,"o":"m 197 341 b 157 343 113 339 76 323 b 53 312 44 270 78 269 b 111 267 145 269 179 267 b 200 266 221 281 226 301 b 230 321 217 340 197 341 z m 189 237 b 147 236 87 236 55 205 b 48 199 48 187 56 181 b 71 170 95 171 114 171 b 137 171 160 172 182 174 b 216 177 229 238 189 237 z"},"a":{"x_min":0,"x_max":431,"ha":431,"o":"m 433 185 b 415 144 399 101 375 63 b 369 53 349 18 334 23 b 323 27 321 65 319 74 b 313 120 315 167 314 212 b 314 261 319 309 316 357 b 312 413 233 397 222 353 b 221 348 220 344 219 339 b 212 348 204 356 194 363 b 163 382 126 379 94 364 b 25 330 -10 251 -19 179 b -27 112 -25 13 46 -20 b 76 -34 112 -16 134 6 b 158 30 172 65 185 96 b 195 123 204 150 213 178 b 213 175 213 173 213 170 b 218 117 220 40 264 3 b 304 -30 358 -13 387 25 b 421 69 440 124 459 175 b 467 194 440 202 433 185 z m 179 181 b 171 154 162 127 151 101 b 141 77 129 48 111 29 b 103 20 100 18 92 28 b 85 37 81 48 78 59 b 71 83 72 109 72 135 b 73 185 86 232 112 275 b 121 291 135 307 156 316 b 178 326 196 302 207 282 b 198 248 190 214 179 181 z"},"L":{"x_min":0,"x_max":317,"ha":317,"o":"m -4 -60 b -31 -77 -56 -95 -79 -117 b -115 -149 -161 -196 -153 -249 b -144 -309 -70 -315 -25 -294 b 31 -268 62 -214 80 -157 b 93 -118 100 -77 104 -35 b 199 14 297 65 356 160 b 368 179 336 188 325 170 b 275 89 189 44 106 1 b 107 13 107 24 108 36 b 110 103 106 171 100 238 b 93 314 85 390 76 465 b 72 504 69 543 62 582 b 56 620 52 659 34 694 b 23 715 -6 708 -12 686 b -29 626 -22 559 -19 497 b -16 434 -13 371 -9 309 b -2 189 7 68 -3 -51 b -4 -54 -4 -57 -4 -60 z m -30 -195 b -37 -211 -48 -232 -61 -244 b -76 -258 -101 -264 -112 -243 b -125 -221 -104 -192 -91 -175 b -75 -155 -57 -137 -37 -121 b -28 -114 -18 -107 -8 -100 b -13 -133 -19 -167 -30 -195 z"},"3":{"x_min":0,"x_max":492,"ha":492,"o":"m 86 397 b 77 419 100 442 115 455 b 131 468 150 478 170 484 b 190 492 212 495 234 496 b 255 497 287 497 303 480 b 335 445 285 409 259 390 b 223 365 186 348 144 332 b 124 324 107 302 108 280 b 108 260 125 242 146 241 b 198 241 245 227 284 190 b 317 161 339 115 342 72 b 345 27 335 -19 301 -49 b 291 -58 272 -69 254 -72 b 232 -77 212 -76 191 -68 b 131 -45 181 44 206 78 b 216 93 220 115 200 125 b 182 135 160 124 150 107 b 131 72 109 41 99 2 b 91 -32 90 -74 114 -102 b 159 -155 245 -152 303 -130 b 372 -103 424 -45 438 29 b 452 100 431 177 386 233 b 359 268 324 294 286 312 b 304 326 322 342 337 361 b 357 386 375 419 372 453 b 369 485 347 503 321 516 b 267 541 198 533 145 509 b 104 490 31 438 55 384 b 63 366 93 380 86 397 z"},";":{"x_min":0,"x_max":191,"ha":191,"o":"m 122 389 b 111 387 104 378 103 368 b 103 357 101 345 99 334 b 93 309 131 309 136 331 b 139 345 140 360 141 374 b 141 384 130 390 122 389 z m 101 217 b 80 193 67 165 54 136 b 35 96 94 81 110 116 b 124 146 136 177 132 211 b 130 226 111 228 101 217 z"},"J":{"x_min":0,"x_max":654,"ha":654,"o":"m 538 723 b 476 719 415 711 353 703 b 292 695 231 686 169 679 b 139 675 109 673 78 671 b 48 669 11 663 -18 672 b -37 679 -56 648 -35 641 b -9 632 20 635 47 636 b 76 638 106 640 135 642 b 197 648 258 657 319 665 b 346 669 373 673 399 676 b 392 641 387 608 386 572 b 386 539 386 505 387 471 b 390 402 394 333 397 265 b 399 217 399 168 397 120 b 362 104 328 86 295 65 b 240 31 188 -11 147 -61 b 107 -109 74 -172 86 -236 b 92 -268 112 -294 140 -312 b 152 -319 165 -325 178 -329 b 193 -334 206 -339 222 -339 b 291 -338 353 -302 397 -250 b 442 -195 466 -125 481 -56 b 494 4 500 65 502 126 b 554 143 607 155 661 163 b 682 167 685 201 660 197 b 607 188 554 176 502 160 b 502 165 502 170 502 175 b 502 261 496 346 488 431 b 484 474 479 517 475 559 b 473 580 471 601 469 621 b 466 642 461 662 457 683 b 471 684 486 686 500 687 b 531 690 562 692 593 692 b 618 693 644 692 663 674 b 678 660 704 687 687 702 b 649 737 585 726 538 723 z m 360 -125 b 346 -172 322 -223 282 -251 b 246 -275 186 -291 148 -260 b 97 -219 132 -138 163 -95 b 198 -48 244 -9 292 24 b 324 47 359 67 395 84 b 391 14 380 -56 360 -125 z"},"V":{"x_min":0,"x_max":667,"ha":667,"o":"m -35 639 b -20 530 -2 421 23 314 b 46 212 72 110 114 14 b 147 -64 208 -181 308 -178 b 413 -174 449 -46 475 35 b 498 106 515 178 529 250 b 575 209 629 179 691 167 b 706 164 719 190 702 196 b 639 216 583 249 538 296 b 541 311 544 326 546 340 b 565 446 587 552 592 660 b 593 704 596 759 577 801 b 559 841 515 842 481 820 b 409 773 387 675 385 595 b 382 485 424 366 500 281 b 488 220 474 160 458 100 b 445 55 431 10 413 -34 b 400 -68 379 -112 337 -116 b 303 -119 279 -84 263 -60 b 239 -24 223 14 209 54 b 141 253 113 464 73 670 b 68 697 33 704 12 697 b -11 690 -38 666 -35 639 z m 509 331 b 466 388 437 457 427 527 b 416 599 420 683 458 748 b 471 769 519 827 542 786 b 551 769 552 747 554 728 b 556 704 556 681 555 657 b 552 560 533 465 516 370 b 514 357 512 344 509 330 b 509 331 509 331 509 331 z"},"\"":{"x_min":0,"x_max":297,"ha":297,"o":"m 74 551 b 60 513 52 474 50 435 b 49 415 70 404 87 407 b 107 411 120 427 121 447 b 124 480 133 513 133 546 b 133 579 84 576 74 551 z m 220 579 b 200 581 184 566 177 548 b 168 521 162 494 161 466 b 161 445 167 406 197 419 b 220 428 225 454 230 476 b 236 498 241 520 246 543 b 251 561 238 577 220 579 z"},"7":{"x_min":0,"x_max":410,"ha":410,"o":"m 66 500 b 97 503 124 517 152 528 b 176 538 209 548 233 531 b 256 515 252 473 250 449 b 248 416 244 384 239 352 b 232 305 223 259 214 213 b 198 210 182 207 167 204 b 146 199 144 165 168 170 b 181 173 194 176 207 178 b 190 101 173 24 163 -55 b 155 -120 246 -118 259 -62 b 272 -3 280 57 290 116 b 293 141 297 166 301 191 b 311 192 322 193 329 190 b 342 184 358 197 360 210 b 361 225 346 234 333 228 b 325 224 315 224 306 224 b 309 248 312 272 315 296 b 321 355 324 415 313 473 b 305 517 275 562 228 572 b 169 584 122 538 66 531 b 46 529 44 497 66 500 z"},"S":{"x_min":0,"x_max":614,"ha":614,"o":"m -21 603 b -51 523 -33 442 7 369 b 45 300 101 243 155 186 b 209 130 263 75 309 12 b 318 0 327 -13 335 -26 b 317 -47 300 -69 286 -92 b 253 -145 217 -245 292 -282 b 322 -297 359 -288 387 -272 b 419 -255 446 -225 458 -191 b 481 -120 459 -44 427 21 b 430 24 433 26 436 29 b 499 86 570 136 646 176 b 664 186 657 215 637 205 b 567 169 500 126 440 75 b 431 67 421 59 412 50 b 374 118 321 175 268 231 b 212 290 154 346 107 412 b 69 466 34 544 63 610 b 91 676 170 715 240 707 b 327 698 369 621 376 541 b 378 519 413 527 411 547 b 407 612 384 680 329 719 b 273 757 198 758 135 738 b 66 715 6 673 -21 603 z m 387 -183 b 384 -210 376 -247 343 -253 b 299 -262 279 -217 286 -180 b 293 -138 318 -100 345 -67 b 347 -64 350 -60 353 -57 b 356 -64 359 -71 363 -77 b 378 -110 392 -146 387 -183 z"},"}":{"x_min":0,"x_max":413,"ha":413,"o":"m 337 308 b 308 322 288 350 272 378 b 252 414 237 453 219 490 b 202 525 186 565 158 592 b 134 615 99 626 65 618 b 46 614 43 585 66 587 b 98 590 112 542 120 519 b 133 480 144 441 157 402 b 175 347 199 292 240 253 b 204 200 194 128 187 67 b 181 24 176 -20 168 -63 b 165 -81 164 -101 156 -118 b 150 -133 147 -130 129 -131 b 100 -134 85 -171 106 -191 b 125 -209 155 -206 178 -197 b 203 -187 222 -166 236 -143 b 261 -102 269 -51 275 -4 b 281 44 286 92 296 139 b 301 160 307 181 314 195 b 316 199 318 203 320 207 b 322 211 318 205 323 212 b 323 212 331 220 329 219 b 333 222 336 224 340 227 b 372 247 370 292 337 308 z"},"Z":{"x_min":0,"x_max":689,"ha":689,"o":"m 138 -205 b 97 -252 45 -321 60 -388 b 79 -468 195 -449 251 -429 b 315 -406 372 -368 422 -322 b 518 -230 591 -84 572 52 b 571 63 569 73 566 83 b 615 110 665 134 717 154 b 738 162 730 192 707 184 b 655 164 605 140 556 113 b 532 170 488 214 428 242 b 391 258 352 266 312 269 b 333 287 355 307 375 326 b 430 378 486 434 516 504 b 531 536 538 576 520 608 b 506 633 479 649 453 659 b 386 684 307 677 238 670 b 151 660 64 644 -23 659 b -42 662 -53 630 -30 626 b 107 602 244 656 382 638 b 408 635 445 630 464 609 b 486 584 475 555 458 531 b 423 477 373 433 325 391 b 265 337 201 288 135 243 b 96 217 110 149 162 160 b 226 172 292 182 355 162 b 403 146 447 115 465 65 b 466 63 466 62 466 60 b 412 26 359 -12 308 -51 b 247 -97 189 -147 138 -205 z m 474 27 b 480 -17 471 -63 458 -106 b 444 -151 417 -200 387 -237 b 378 -248 369 -258 360 -267 b 349 -279 345 -283 335 -291 b 314 -309 292 -326 268 -340 b 249 -351 219 -364 195 -373 b 173 -381 129 -396 110 -376 b 89 -355 107 -315 117 -294 b 131 -266 151 -241 172 -218 b 217 -167 268 -122 322 -81 b 371 -43 422 -6 474 27 z"},"x":{"x_min":0,"x_max":354,"ha":354,"o":"m 353 188 b 331 145 304 97 267 64 b 259 58 250 50 240 47 b 230 44 223 48 214 53 b 196 65 183 79 173 97 b 155 129 141 164 130 199 b 171 254 217 305 259 358 b 275 377 248 394 233 377 b 193 334 155 288 119 240 b 109 282 103 325 97 367 b 94 394 73 410 46 406 b 18 401 1 378 -2 351 b -8 287 2 223 24 163 b 29 151 34 138 40 126 b 15 87 -6 47 -25 5 b -35 -16 -4 -24 5 -5 b 20 28 38 60 57 91 b 74 60 97 33 127 15 b 152 1 181 -6 210 1 b 234 7 261 19 281 34 b 326 70 358 127 384 177 b 395 198 363 206 353 188 z"},")":{"x_min":0,"x_max":366,"ha":366,"o":"m 310 294 b 302 365 287 439 252 501 b 219 560 153 619 82 588 b 66 581 66 552 87 557 b 106 563 131 533 142 519 b 157 501 169 481 178 460 b 199 406 207 349 213 292 b 219 234 220 175 215 117 b 211 74 201 21 185 -16 b 180 -29 173 -42 166 -55 b 159 -68 157 -70 148 -82 b 144 -87 139 -92 134 -97 b 128 -104 131 -101 123 -107 b 117 -112 111 -115 103 -115 b 82 -114 60 -127 52 -148 b 46 -166 51 -191 73 -196 b 151 -216 212 -157 250 -96 b 284 -43 303 21 310 83 b 319 153 318 224 310 294 z"},"&":{"x_min":0,"x_max":526,"ha":526,"o":"m 439 156 b 407 171 370 165 340 148 b 323 138 336 110 354 120 b 378 134 424 139 438 108 b 451 81 421 46 404 27 b 365 -16 308 -40 250 -33 b 228 -30 205 -19 195 2 b 184 27 202 55 217 76 b 233 100 254 123 275 143 b 282 149 296 161 307 169 b 320 179 328 185 340 190 b 360 199 377 219 377 242 b 376 262 359 283 337 282 b 287 280 230 273 189 295 b 170 306 158 320 152 339 b 150 347 149 356 152 366 b 155 376 160 385 165 394 b 174 409 188 424 204 435 b 222 447 240 453 261 456 b 281 458 304 456 319 444 b 338 429 341 402 344 380 b 348 345 395 359 397 389 b 401 445 380 495 323 512 b 274 527 218 517 173 496 b 119 471 74 426 56 368 b 37 308 65 245 117 212 b 142 196 169 187 197 182 b 180 164 165 144 150 123 b 110 65 84 -22 154 -72 b 214 -114 290 -94 348 -59 b 398 -30 453 17 472 74 b 483 107 472 140 439 156 z"},"_":{"x_min":0,"x_max":461,"ha":461,"o":"m 383 -35 b 357 -35 331 -32 305 -33 b 278 -34 252 -36 225 -37 b 200 -39 174 -41 149 -42 b 124 -42 93 -38 70 -49 b 53 -56 41 -81 59 -94 b 78 -109 110 -106 133 -106 b 159 -107 185 -106 211 -105 b 261 -104 315 -99 365 -107 b 410 -115 433 -36 383 -35 z"},"v":{"x_min":0,"x_max":433,"ha":433,"o":"m 456 198 b 407 210 353 224 313 255 b 322 285 329 315 332 346 b 336 380 334 437 284 427 b 244 420 225 372 227 336 b 230 296 248 266 274 242 b 258 189 238 136 219 84 b 213 68 206 52 196 37 b 193 33 187 22 182 19 b 179 17 180 17 175 21 b 151 37 141 76 132 102 b 105 181 92 264 78 347 b 73 372 40 378 20 372 b -3 365 -26 343 -24 317 b -16 216 5 115 54 25 b 76 -16 121 -55 170 -44 b 216 -33 235 22 249 61 b 266 107 280 154 295 200 b 298 207 300 214 302 221 b 344 194 396 179 440 168 b 458 164 477 193 456 198 z m 299 360 b 298 341 294 322 290 303 b 288 296 287 290 285 283 b 283 287 280 291 278 294 b 261 320 251 365 276 389 b 297 409 299 374 299 360 z"},"O":{"x_min":0,"x_max":635,"ha":635,"o":"m 34 669 b -29 573 -48 449 -15 340 b -5 305 11 271 32 241 b 21 130 18 16 56 -91 b 78 -152 118 -208 187 -219 b 251 -229 307 -183 343 -134 b 395 -63 423 23 438 110 b 486 115 533 124 579 137 b 609 146 638 157 667 170 b 686 179 679 208 658 199 b 589 170 517 152 443 144 b 454 219 458 296 453 371 b 448 452 436 534 405 609 b 382 666 349 728 293 758 b 252 780 203 784 159 771 b 105 756 64 714 34 669 z m 340 9 b 323 -37 299 -90 261 -122 b 248 -133 232 -142 215 -137 b 196 -132 183 -116 173 -100 b 145 -58 137 -1 133 49 b 129 85 129 121 131 157 b 158 142 188 132 217 125 b 267 112 318 107 369 107 b 362 73 352 41 340 9 z m 251 737 b 301 720 337 672 355 623 b 378 559 386 488 390 420 b 395 329 393 233 376 141 b 357 141 338 141 320 143 b 255 148 188 164 133 198 b 134 207 134 215 135 224 b 137 253 139 282 142 311 b 144 335 117 352 95 350 b 72 349 43 331 40 306 b 40 304 40 303 39 301 b -3 385 -5 488 25 576 b 57 670 139 774 251 737 z"},"(":{"x_min":0,"x_max":396,"ha":396,"o":"m 308 -120 b 262 -137 220 -95 201 -59 b 175 -10 160 46 150 99 b 128 208 138 326 177 429 b 189 460 204 492 223 519 b 230 531 239 542 249 552 b 253 556 258 560 263 564 b 265 565 267 566 269 567 b 271 569 274 570 276 571 b 278 574 279 574 280 571 b 296 569 312 599 292 604 b 277 607 267 612 251 611 b 232 608 215 599 200 589 b 169 567 145 533 126 500 b 91 438 68 369 58 299 b 47 228 47 156 59 86 b 70 16 90 -58 130 -117 b 173 -181 265 -225 333 -169 b 359 -147 343 -108 308 -120 z"},"C":{"x_min":0,"x_max":582,"ha":582,"o":"m 43 529 b 9 438 -12 342 -23 245 b -34 149 -36 51 -23 -45 b -10 -134 15 -231 80 -297 b 109 -327 146 -347 188 -350 b 229 -352 274 -340 310 -320 b 394 -272 455 -182 501 -100 b 551 -13 587 80 623 172 b 632 193 601 202 594 183 b 537 39 478 -110 372 -226 b 324 -278 245 -340 174 -292 b 147 -273 130 -245 117 -217 b 100 -180 88 -143 80 -104 b 63 -23 61 61 64 143 b 68 228 80 311 100 393 b 119 470 144 546 182 616 b 198 648 216 679 240 706 b 259 729 278 748 306 757 b 339 767 375 755 401 733 b 432 706 444 665 447 625 b 451 559 432 460 360 436 b 334 427 344 388 373 398 b 447 424 477 505 486 577 b 497 658 481 743 416 799 b 343 861 243 825 182 766 b 115 702 74 615 43 529 z"},"W":{"x_min":0,"x_max":933,"ha":933,"o":"m 961 202 b 903 189 846 228 804 270 b 807 284 810 298 812 313 b 827 398 838 485 839 572 b 840 656 833 749 799 826 b 786 854 763 879 730 868 b 697 858 681 819 670 789 b 641 709 639 615 648 531 b 658 443 686 355 742 284 b 749 275 757 266 765 257 b 757 219 748 182 736 145 b 724 109 711 74 692 41 b 677 15 660 -17 633 -32 b 607 -47 579 -25 562 -5 b 539 23 523 57 511 90 b 485 161 475 237 465 311 b 462 337 441 354 414 350 b 393 346 370 328 365 306 b 364 304 364 302 363 300 b 345 221 331 140 308 62 b 299 30 286 -3 261 -26 b 231 -53 201 -35 180 -7 b 137 53 119 132 104 203 b 88 279 82 355 80 432 b 77 522 83 612 88 702 b 89 726 65 741 44 740 b 22 739 -5 721 -9 697 b -33 519 -37 329 14 155 b 37 76 69 -20 140 -67 b 174 -90 216 -95 252 -73 b 286 -52 311 -25 327 12 b 345 52 353 95 362 138 b 367 161 372 184 376 207 b 385 154 398 101 421 52 b 453 -17 509 -105 596 -99 b 683 -94 715 -4 743 64 b 766 117 782 172 795 228 b 842 187 902 157 962 171 b 980 176 983 207 961 202 z m 694 472 b 677 547 675 626 684 703 b 689 738 696 773 712 805 b 716 815 725 836 738 838 b 753 841 763 819 767 808 b 824 669 807 506 784 361 b 781 342 778 322 775 303 b 735 352 709 411 694 472 z"},"A":{"x_min":0,"x_max":922,"ha":922,"o":"m 727 -243 b 721 -197 717 -151 713 -105 b 706 -5 704 96 704 196 b 704 248 704 301 703 354 b 707 354 710 354 713 354 b 722 354 732 360 734 369 b 736 377 730 387 721 387 b 715 386 709 386 702 386 b 701 425 700 464 697 503 b 694 552 690 600 682 648 b 675 693 666 743 637 779 b 613 810 567 823 533 798 b 500 772 477 729 459 692 b 419 608 390 516 362 427 b 354 403 347 379 340 354 b 216 337 92 314 -30 284 b -49 279 -51 247 -29 253 b 90 281 210 304 330 321 b 310 250 290 178 271 107 b 256 53 241 0 225 -53 b 210 -105 195 -158 169 -205 b 158 -224 187 -232 197 -215 b 221 -174 237 -128 251 -82 b 265 -36 279 11 292 57 b 317 147 342 237 368 326 b 446 336 524 344 603 349 b 600 267 597 185 597 103 b 596 1 599 -101 615 -201 b 622 -246 630 -293 657 -332 b 681 -364 723 -396 766 -385 b 810 -374 829 -322 845 -284 b 864 -238 877 -190 889 -142 b 913 -44 928 57 963 152 b 966 160 959 168 951 168 b 942 169 935 162 932 154 b 900 69 884 -21 864 -109 b 855 -152 844 -195 829 -236 b 822 -257 814 -276 804 -296 b 798 -308 785 -341 770 -344 b 753 -347 745 -314 742 -303 b 735 -284 730 -264 727 -243 z m 377 359 b 404 448 432 536 467 622 b 484 666 502 710 531 747 b 541 760 558 786 576 770 b 592 757 595 729 598 709 b 612 609 608 509 605 409 b 605 399 604 390 604 381 b 528 376 453 369 377 359 z"},"f":{"x_min":0,"x_max":283,"ha":283,"o":"m 291 211 b 227 158 164 104 101 51 b 99 69 98 87 97 105 b 95 132 95 160 95 188 b 163 301 224 420 262 546 b 279 603 298 713 205 703 b 166 699 135 671 110 643 b 86 614 66 581 51 547 b 16 471 1 389 -8 305 b -16 225 -18 143 -10 63 b -3 -17 13 -97 48 -169 b 65 -204 89 -247 125 -265 b 160 -283 202 -282 230 -252 b 253 -228 262 -186 262 -153 b 263 -118 251 -83 231 -55 b 201 -15 154 7 106 8 b 106 10 106 11 106 12 b 173 70 241 128 309 186 b 326 201 308 226 291 211 z m 99 303 b 103 366 108 428 126 489 b 142 542 169 590 202 635 b 206 639 214 655 221 656 b 232 656 236 633 237 626 b 240 591 227 556 217 524 b 188 431 145 344 97 261 b 97 275 98 289 99 303 z m 195 -74 b 212 -94 222 -120 224 -146 b 225 -159 224 -172 221 -184 b 219 -194 213 -215 201 -216 b 194 -217 188 -207 184 -202 b 176 -189 166 -177 159 -164 b 145 -139 136 -111 127 -83 b 122 -65 117 -47 113 -28 b 145 -33 175 -48 195 -74 z"},"Q":{"x_min":0,"x_max":635,"ha":635,"o":"m 34 669 b -29 573 -48 449 -15 340 b -5 305 11 271 32 241 b 21 130 18 16 56 -91 b 78 -152 118 -208 187 -219 b 211 -223 235 -218 256 -209 b 278 -274 306 -337 339 -397 b 351 -419 392 -394 383 -372 b 356 -308 328 -244 301 -180 b 317 -167 331 -151 343 -134 b 395 -63 423 23 438 110 b 486 115 533 124 579 137 b 609 146 638 157 667 170 b 686 179 679 208 658 199 b 589 170 517 152 443 144 b 454 219 458 296 453 371 b 448 452 436 534 405 609 b 382 666 349 727 293 758 b 252 780 203 784 159 771 b 105 756 64 714 34 669 z m 340 9 b 325 -32 304 -80 271 -112 b 265 -97 259 -82 252 -67 b 244 -47 215 -62 220 -80 b 224 -99 229 -118 234 -137 b 228 -139 222 -139 215 -137 b 196 -132 183 -116 173 -100 b 145 -58 137 -1 133 49 b 129 85 129 121 131 157 b 158 142 188 132 217 125 b 267 112 318 107 369 107 b 362 73 352 41 340 9 z m 251 737 b 301 720 337 672 355 623 b 378 559 386 488 390 420 b 395 329 393 233 376 141 b 357 141 338 141 320 143 b 255 148 188 164 133 198 b 134 207 134 215 135 224 b 137 253 139 282 142 311 b 144 335 117 352 95 350 b 72 349 43 331 40 306 b 40 304 40 303 39 301 b -3 385 -5 488 25 576 b 57 670 139 774 251 737 z"},"w":{"x_min":0,"x_max":565,"ha":565,"o":"m 585 198 b 547 203 509 217 480 242 b 484 260 488 277 491 295 b 497 335 507 386 491 424 b 484 438 471 448 454 446 b 436 444 423 429 415 415 b 396 384 392 347 398 312 b 404 279 420 251 442 228 b 438 214 435 200 431 185 b 422 153 412 123 395 94 b 387 81 365 45 346 58 b 324 72 316 105 311 127 b 302 161 301 196 299 231 b 295 292 201 269 203 215 b 194 176 186 137 172 100 b 164 81 155 59 141 44 b 126 26 111 45 103 61 b 85 100 85 147 83 189 b 82 242 86 295 85 348 b 84 404 -4 392 -11 344 b -19 278 -21 210 -12 144 b -5 88 10 10 72 -12 b 126 -31 172 21 193 65 b 201 82 208 99 213 117 b 225 61 251 8 307 -5 b 408 -28 441 91 461 163 b 465 177 468 190 471 204 b 502 183 539 170 577 167 b 596 165 607 196 585 198 z m 453 281 b 452 279 452 277 452 275 b 451 276 450 277 449 279 b 435 302 429 331 431 358 b 433 372 436 384 442 396 b 444 401 449 413 456 410 b 461 407 462 388 462 383 b 466 349 459 314 453 281 z"},"-":{"x_min":0,"x_max":340,"ha":340,"o":"m 260 256 b 226 257 192 255 158 251 b 126 248 89 246 61 228 b 46 218 47 197 63 189 b 87 176 124 182 151 182 b 181 182 212 182 243 183 b 263 184 284 195 289 217 b 293 235 280 256 260 256 z"},"E":{"x_min":0,"x_max":639,"ha":639,"o":"m -24 453 b -48 362 -24 261 60 211 b 89 195 119 185 150 180 b 133 163 117 145 102 126 b 36 44 -26 -63 -26 -172 b -26 -229 1 -277 54 -300 b 107 -324 168 -311 221 -293 b 322 -257 408 -184 480 -106 b 560 -20 629 72 678 179 b 688 200 657 208 648 190 b 570 22 442 -128 272 -207 b 215 -234 78 -281 60 -182 b 52 -138 69 -89 87 -50 b 106 -11 128 26 155 60 b 198 116 251 166 309 204 b 335 215 360 229 383 245 b 401 258 412 284 401 304 b 391 324 364 332 344 321 b 331 314 318 306 304 299 b 254 273 195 262 142 284 b 86 307 57 365 64 429 b 73 496 110 556 158 602 b 209 649 282 693 353 689 b 431 684 490 608 486 532 b 485 509 522 518 523 539 b 529 619 476 695 402 723 b 355 741 305 737 257 725 b 213 715 173 697 136 671 b 61 620 -1 541 -24 453 z"},"s":{"x_min":0,"x_max":296,"ha":296,"o":"m 308 204 b 247 170 188 131 141 80 b 115 114 88 148 72 189 b 64 208 60 226 58 246 b 56 264 53 286 58 303 b 63 319 74 341 93 343 b 114 345 130 320 137 304 b 145 285 176 299 169 317 b 158 346 139 372 107 378 b 74 385 43 364 22 340 b -29 278 -34 197 -6 123 b 14 74 47 35 81 -4 b 56 -51 40 -108 87 -134 b 115 -149 160 -141 183 -121 b 215 -93 216 -47 200 -11 b 189 12 175 34 161 54 b 205 105 262 145 321 179 b 336 188 324 214 308 204 z m 143 -96 b 136 -108 110 -105 102 -96 b 87 -80 94 -54 105 -31 b 114 -42 122 -52 131 -63 b 137 -70 148 -85 143 -96 z"},">":{"x_min":0,"x_max":298,"ha":298,"o":"m 247 224 b 245 259 207 269 180 278 b 164 284 149 288 133 293 b 124 295 115 297 105 297 b 95 298 85 297 75 299 b 57 304 39 279 59 270 b 70 265 77 256 87 249 b 98 243 109 237 121 232 b 131 227 141 222 152 217 b 155 216 158 215 161 213 b 154 210 148 207 141 204 b 118 193 92 187 70 173 b 36 151 52 102 93 106 b 127 109 161 133 190 151 b 216 168 251 189 247 224 z"},"l":{"x_min":0,"x_max":284,"ha":284,"o":"m 282 192 b 268 147 253 102 232 60 b 222 40 210 20 193 4 b 187 -2 180 -7 172 -10 b 157 -16 150 -5 143 7 b 110 65 102 136 95 201 b 87 267 85 332 85 397 b 134 528 191 656 218 793 b 226 831 231 869 234 907 b 236 948 237 991 224 1030 b 211 1064 179 1080 145 1063 b 108 1046 84 1004 68 968 b 34 888 15 800 2 715 b -11 625 -18 536 -21 445 b -24 359 -20 272 -5 186 b 8 113 26 20 89 -27 b 118 -48 156 -54 188 -38 b 213 -25 232 -2 247 22 b 278 73 295 133 312 190 b 318 210 287 209 282 192 z m 101 652 b 108 727 117 801 129 874 b 135 909 143 942 154 976 b 158 989 162 1004 168 1016 b 178 1035 185 1012 189 1001 b 199 966 198 930 196 895 b 193 858 188 822 180 786 b 160 688 125 594 89 501 b 92 551 97 602 101 652 z"},"8":{"x_min":0,"x_max":422,"ha":422,"o":"m 142 227 b 129 207 119 183 113 164 b 95 112 90 49 110 -3 b 129 -52 173 -86 226 -83 b 279 -81 320 -44 343 2 b 369 53 361 110 338 160 b 352 219 366 278 371 339 b 375 394 372 451 341 499 b 278 596 131 560 75 475 b 38 420 45 357 77 302 b 94 274 117 250 142 227 z m 294 -12 b 280 -35 253 -48 227 -48 b 154 -50 132 31 134 90 b 135 119 141 149 153 176 b 157 186 162 196 168 206 b 177 197 187 189 197 181 b 235 148 278 109 296 59 b 303 37 306 9 294 -12 z m 145 437 b 146 450 156 470 167 484 b 181 503 207 512 230 514 b 306 520 334 438 335 377 b 336 318 326 261 313 204 b 285 243 248 273 214 306 b 180 339 140 386 145 437 z"},"\\":{"x_min":0,"x_max":390,"ha":390,"o":"m 338 -117 b 324 -59 299 -4 279 52 b 259 107 239 162 219 216 b 199 271 179 326 158 380 b 148 407 138 433 127 460 b 121 473 116 486 109 499 b 106 506 102 514 98 521 b 94 528 88 534 85 543 b 77 563 45 548 51 528 b 53 520 51 512 52 504 b 53 496 54 488 56 480 b 58 465 61 451 64 437 b 71 408 78 379 86 350 b 102 294 119 238 136 182 b 154 126 172 70 191 15 b 210 -41 226 -100 252 -153 b 277 -202 351 -167 338 -117 z"},"e":{"x_min":0,"x_max":299,"ha":299,"o":"m 302 192 b 265 156 235 114 200 77 b 182 58 163 41 140 29 b 119 18 99 29 89 49 b 77 71 77 98 77 122 b 77 150 80 178 85 205 b 86 208 86 210 87 213 b 115 229 142 249 162 275 b 180 300 197 333 184 364 b 169 397 132 400 102 388 b 64 374 37 344 17 309 b -3 272 -12 231 -17 190 b -22 147 -24 102 -13 60 b -5 25 20 -14 57 -23 b 95 -33 131 -15 163 4 b 231 46 272 118 325 175 b 341 191 316 206 302 192 z m 107 287 b 113 306 119 331 132 347 b 144 362 157 351 157 334 b 156 319 147 304 139 292 b 127 277 112 264 97 253 b 100 264 103 276 107 287 z"},"b":{"x_min":0,"x_max":464,"ha":464,"o":"m 476 171 b 442 154 407 141 371 127 b 378 177 376 229 364 278 b 354 323 330 372 281 383 b 234 393 199 350 176 316 b 145 268 124 214 106 160 b 103 149 99 138 96 127 b 95 140 94 153 93 166 b 91 204 88 243 86 282 b 131 396 173 511 203 630 b 221 702 235 776 239 850 b 241 886 239 924 233 960 b 228 986 218 1010 191 1018 b 150 1031 111 1006 87 974 b 56 934 39 886 24 838 b -13 716 -22 585 -22 458 b -22 371 -16 285 -6 199 b -2 156 5 112 12 69 b 15 47 20 26 24 4 b 29 -19 39 -39 50 -59 b 59 -78 87 -72 91 -52 b 94 -35 97 -18 100 -1 b 100 3 101 7 101 10 b 115 81 135 151 163 218 b 178 254 196 290 220 321 b 230 333 245 351 262 350 b 283 348 283 318 285 303 b 295 232 291 155 269 86 b 242 74 217 60 195 43 b 166 19 143 -25 166 -61 b 179 -81 205 -87 228 -84 b 259 -81 287 -60 307 -37 b 339 -2 355 47 365 93 b 406 108 447 123 486 142 b 505 151 497 181 476 171 z m 82 364 b 82 369 82 374 81 379 b 77 508 82 638 104 766 b 110 806 118 846 130 885 b 131 890 133 895 135 900 b 135 902 136 904 137 906 b 137 907 137 908 137 908 b 140 914 142 920 144 927 b 141 920 146 932 147 934 b 149 938 151 943 154 947 b 154 948 157 953 158 954 b 159 957 162 961 163 963 b 164 963 167 967 169 969 b 170 970 171 971 171 971 b 172 971 172 971 173 971 b 173 971 178 971 176 972 b 181 970 184 966 186 962 b 201 935 202 897 201 867 b 201 797 188 727 173 659 b 151 558 118 461 82 364 z m 210 -15 b 209 -16 202 -23 199 -23 b 196 -22 197 -10 198 -7 b 202 12 223 24 238 34 b 242 37 247 40 252 42 b 242 20 228 -2 210 -15 z"},"%":{"x_min":0,"x_max":561,"ha":561,"o":"m 490 517 b 499 536 496 560 476 571 b 456 580 428 574 415 556 b 375 502 343 442 311 383 b 281 326 252 269 225 211 b 198 151 172 91 149 30 b 127 -28 99 -91 96 -154 b 95 -178 130 -179 141 -163 b 178 -112 200 -50 227 7 b 254 65 281 124 310 181 b 338 237 366 294 397 349 b 427 405 462 459 490 517 z m 234 344 b 236 375 232 411 215 437 b 198 462 167 476 138 465 b 118 458 103 442 93 423 b 77 420 63 407 59 391 b 43 336 42 222 118 211 b 191 201 230 283 234 344 z m 127 411 b 133 419 141 425 153 424 b 189 419 183 353 178 329 b 176 318 157 260 138 276 b 128 285 127 312 126 325 b 124 345 127 366 131 386 b 133 395 131 404 127 411 z m 491 164 b 474 189 443 203 414 192 b 394 184 379 169 369 150 b 353 147 339 134 335 118 b 319 63 318 -51 394 -62 b 467 -73 506 10 510 70 b 512 101 508 137 491 164 z m 454 55 b 452 45 433 -14 414 2 b 404 11 403 39 402 51 b 400 72 403 92 407 112 b 409 121 407 130 403 137 b 409 146 417 152 429 150 b 465 145 459 79 454 55 z"},"m":{"x_min":0,"x_max":592,"ha":592,"o":"m 592 158 b 576 129 557 101 532 78 b 523 70 502 52 491 67 b 483 76 483 94 483 106 b 480 142 476 177 473 213 b 471 249 469 288 457 322 b 446 354 433 380 400 393 b 372 404 350 385 336 361 b 319 332 309 297 299 265 b 299 263 298 261 297 259 b 290 290 280 321 265 349 b 256 366 240 392 220 399 b 198 407 176 390 163 374 b 129 330 110 272 93 219 b 89 207 85 194 82 182 b 81 188 81 194 82 200 b 82 261 85 321 84 382 b 84 408 58 423 34 419 b 7 415 -12 392 -13 365 b -17 303 -17 240 -13 177 b -11 146 -8 114 -3 83 b 2 53 9 25 32 4 b 46 -11 73 7 76 23 b 78 29 79 35 80 42 b 99 135 123 232 166 317 b 171 326 189 370 204 368 b 218 365 214 312 215 302 b 217 252 217 200 223 150 b 230 100 298 112 308 152 b 309 154 309 155 310 156 b 315 192 323 228 333 263 b 339 281 345 299 352 316 b 355 324 366 359 375 360 b 378 362 379 361 377 356 b 377 352 377 349 377 345 b 377 336 377 328 377 319 b 377 303 376 287 376 271 b 376 235 374 199 377 163 b 383 96 413 23 490 25 b 521 25 547 47 567 68 b 589 92 607 119 621 148 b 632 168 601 176 592 158 z"},"#":{"x_min":0,"x_max":611,"ha":611,"o":"m 539 247 b 560 245 572 280 548 281 b 511 283 474 285 437 285 b 450 364 465 442 482 520 b 487 543 472 565 448 567 b 423 569 399 550 393 526 b 372 447 356 366 344 285 b 325 284 306 284 288 283 b 299 355 311 427 321 499 b 330 565 237 562 224 506 b 206 430 193 353 183 276 b 151 273 118 269 85 265 b 65 262 63 231 86 233 b 117 237 148 240 180 243 b 177 220 175 197 172 174 b 137 171 101 167 66 161 b 46 157 44 125 66 129 b 101 135 135 139 170 141 b 166 94 164 47 164 -1 b 164 -29 166 -57 169 -85 b 172 -113 174 -144 193 -166 b 206 -182 230 -175 239 -158 b 253 -131 253 -101 255 -71 b 257 -45 259 -18 260 8 b 262 54 266 100 270 146 b 278 147 285 147 293 147 b 304 148 316 148 328 149 b 322 93 319 37 318 -19 b 318 -49 318 -79 320 -109 b 322 -138 323 -168 338 -194 b 347 -208 369 -199 375 -187 b 389 -159 390 -127 393 -97 b 397 -67 399 -38 401 -8 b 406 45 411 99 418 152 b 452 153 486 154 520 155 b 530 156 540 161 542 171 b 544 180 538 191 529 191 b 493 189 458 188 422 186 b 425 208 428 229 432 251 b 468 250 504 249 539 247 z m 331 182 b 319 182 306 181 294 181 b 287 180 280 180 274 180 b 276 203 279 226 283 249 b 302 250 320 250 339 251 b 336 228 333 205 331 182 z"},",":{"x_min":0,"x_max":216,"ha":216,"o":"m 144 103 b 122 111 96 97 86 77 b 65 38 44 -10 52 -56 b 56 -79 88 -71 99 -59 b 127 -29 143 14 162 51 b 171 70 166 95 144 103 z"},"n":{"x_min":0,"x_max":419,"ha":419,"o":"m 420 162 b 407 130 392 100 372 72 b 362 58 320 -3 302 32 b 296 42 298 58 297 70 b 295 88 294 106 293 124 b 291 157 292 191 291 224 b 289 259 287 294 273 327 b 264 350 246 382 218 386 b 188 389 164 360 149 338 b 130 311 115 281 102 251 b 90 221 80 191 71 161 b 71 166 71 172 71 178 b 70 243 74 307 76 372 b 77 422 -3 410 -8 368 b -17 305 -17 241 -14 178 b -12 147 -9 117 -4 87 b 1 56 6 24 23 -3 b 28 -10 37 -12 45 -11 b 51 -9 58 -6 62 -1 b 62 -1 62 -1 62 -1 b 65 3 67 6 68 11 b 69 14 70 18 71 22 b 72 23 72 24 73 26 b 87 93 102 161 127 225 b 139 257 154 288 173 316 b 179 325 192 347 203 350 b 208 352 205 356 208 348 b 208 345 207 339 207 336 b 207 328 207 319 207 310 b 205 242 190 172 197 104 b 200 69 208 27 238 6 b 261 -11 292 -19 319 -12 b 353 -3 376 28 395 55 b 417 85 434 118 448 152 b 456 173 427 181 420 162 z"},"h":{"x_min":0,"x_max":469,"ha":469,"o":"m 468 164 b 453 128 436 94 416 61 b 408 47 365 -23 346 14 b 340 25 341 41 339 54 b 337 72 334 90 332 109 b 328 148 322 188 317 227 b 311 266 305 306 292 343 b 283 369 261 405 229 397 b 198 389 178 351 165 325 b 149 292 137 256 126 221 b 115 187 105 152 97 116 b 96 133 94 149 93 166 b 91 204 88 243 86 282 b 131 396 173 511 203 630 b 221 702 235 776 239 850 b 241 886 239 924 233 960 b 228 986 218 1010 191 1018 b 150 1031 111 1006 87 974 b 56 934 39 886 24 838 b -13 716 -22 585 -22 458 b -22 371 -16 285 -6 199 b -2 156 5 112 12 69 b 15 47 20 26 24 4 b 29 -19 39 -39 50 -59 b 59 -78 87 -72 91 -52 b 92 -49 92 -46 93 -42 b 94 -40 95 -38 95 -36 b 111 39 127 115 149 189 b 160 227 173 264 189 300 b 196 316 204 332 214 346 b 216 348 226 364 230 363 b 230 363 229 343 228 339 b 225 297 222 257 224 215 b 226 176 228 137 233 99 b 237 61 246 19 276 -8 b 299 -28 330 -39 361 -32 b 398 -23 420 8 439 38 b 462 75 482 114 498 153 b 506 174 476 182 468 164 z m 82 364 b 82 369 82 374 81 379 b 77 508 82 638 104 766 b 110 806 118 846 130 885 b 131 890 133 895 135 900 b 135 902 136 904 137 906 b 137 907 137 908 137 908 b 140 914 142 920 144 927 b 142 920 146 932 147 934 b 149 938 151 943 154 947 b 154 948 157 953 158 954 b 159 957 162 961 163 963 b 164 963 167 967 169 969 b 170 970 171 971 171 971 b 172 971 172 971 173 971 b 173 971 178 971 176 972 b 181 970 184 966 186 962 b 201 935 202 897 201 867 b 201 797 188 727 173 659 b 151 558 118 461 82 364 z"},"z":{"x_min":0,"x_max":398,"ha":398,"o":"m 409 176 b 365 158 324 137 285 113 b 277 145 264 176 245 204 b 228 229 205 251 179 266 b 186 273 194 281 201 289 b 218 307 261 351 230 375 b 222 382 209 386 198 388 b 180 392 161 394 142 394 b 103 396 63 393 24 386 b 4 382 2 350 25 354 b 54 359 84 362 113 362 b 128 362 143 361 158 359 b 165 358 172 357 179 356 b 179 356 179 356 180 356 b 176 353 172 350 169 348 b 158 340 148 333 137 326 b 113 310 89 295 65 281 b 50 272 41 250 44 234 b 47 216 61 206 79 203 b 149 193 187 121 199 52 b 181 37 163 22 146 5 b 107 -31 69 -71 38 -114 b 8 -154 -21 -203 -26 -254 b -30 -303 1 -344 52 -349 b 102 -353 154 -326 191 -294 b 232 -256 263 -209 280 -156 b 299 -99 301 -37 298 22 b 297 41 295 60 292 79 b 332 105 374 127 419 145 b 440 154 431 185 409 176 z m 168 -225 b 151 -257 123 -291 88 -303 b 68 -310 42 -313 27 -296 b 12 -281 10 -257 14 -237 b 23 -192 50 -151 78 -116 b 105 -81 136 -49 168 -18 b 180 -7 192 4 204 14 b 212 -65 206 -154 168 -225 z"},"B":{"x_min":0,"x_max":800,"ha":800,"o":"m 427 800 b 381 794 342 759 313 725 b 281 686 255 642 232 597 b 184 506 149 409 122 310 b 107 253 94 195 82 138 b 80 190 79 243 78 295 b 77 421 83 546 90 671 b 91 695 67 710 46 709 b 24 707 -3 690 -6 666 b -22 539 -25 411 -20 282 b -17 220 -12 159 -5 97 b -1 66 4 34 10 3 b 15 -25 20 -65 39 -88 b 49 -100 73 -97 79 -81 b 87 -59 88 -35 87 -11 b 120 161 153 335 222 497 b 239 539 259 580 282 619 b 304 657 327 696 359 727 b 382 749 440 790 466 751 b 476 735 469 716 462 701 b 453 680 441 660 429 641 b 380 560 314 496 236 444 b 219 433 208 409 215 389 b 221 371 244 357 263 363 b 322 380 381 365 433 329 b 487 291 526 235 548 174 b 556 153 561 133 565 111 b 494 75 427 32 363 -17 b 300 -66 239 -121 193 -187 b 154 -243 102 -330 133 -400 b 164 -468 254 -471 318 -463 b 401 -453 475 -402 530 -341 b 587 -277 624 -198 647 -116 b 669 -39 676 43 664 122 b 715 142 769 153 823 145 b 844 141 855 174 832 178 b 772 188 714 175 658 154 b 658 156 657 157 657 159 b 637 248 589 333 518 391 b 478 424 430 448 379 458 b 418 503 451 552 477 605 b 496 646 517 692 509 737 b 502 780 472 805 427 800 z m 501 -242 b 469 -299 424 -346 367 -378 b 318 -405 243 -436 190 -401 b 127 -360 184 -262 213 -218 b 251 -158 303 -108 357 -63 b 422 -9 494 39 570 78 b 570 79 570 79 571 79 b 584 -31 555 -147 501 -242 z"},"K":{"x_min":0,"x_max":615,"ha":615,"o":"m 104 747 b 104 768 85 781 66 780 b 45 779 27 764 21 743 b -13 627 -16 501 -19 381 b -21 261 -20 141 -11 22 b -8 -13 -6 -47 -2 -81 b 2 -113 5 -150 22 -178 b 31 -194 58 -185 65 -171 b 76 -143 78 -111 79 -82 b 80 -52 81 -22 82 8 b 82 68 81 128 82 188 b 82 259 84 331 87 402 b 93 398 97 394 100 387 b 103 381 106 374 110 367 b 118 351 126 334 132 317 b 146 281 154 244 159 206 b 171 117 178 28 204 -58 b 216 -96 231 -139 258 -169 b 285 -199 320 -215 361 -214 b 437 -210 494 -140 532 -81 b 584 -1 624 85 657 174 b 660 183 652 191 644 192 b 634 193 626 186 623 177 b 596 102 562 30 521 -38 b 502 -68 483 -98 459 -124 b 437 -147 402 -177 367 -174 b 333 -171 317 -127 308 -99 b 296 -64 289 -25 282 12 b 267 91 260 172 242 251 b 234 289 219 328 198 361 b 187 377 175 392 159 405 b 153 410 146 416 138 419 b 135 420 132 421 129 423 b 178 464 228 503 276 546 b 321 585 365 626 385 684 b 388 692 381 701 373 701 b 363 702 355 695 352 686 b 332 632 284 594 242 558 b 191 515 140 473 88 433 b 89 471 91 509 94 548 b 98 614 105 681 104 747 z"},"R":{"x_min":0,"x_max":665,"ha":665,"o":"m 97 682 b 99 742 3 728 -4 677 b -22 542 -24 404 -18 268 b -13 133 1 -1 24 -134 b 30 -171 37 -208 48 -244 b 53 -262 58 -281 71 -295 b 83 -307 103 -309 116 -297 b 122 -291 127 -283 127 -276 b 127 -276 127 -276 127 -276 b 127 -283 128 -271 129 -268 b 130 -259 131 -251 130 -242 b 129 -228 128 -214 127 -200 b 134 -110 149 -20 165 69 b 204 -33 236 -142 322 -213 b 374 -255 451 -281 515 -253 b 575 -227 608 -162 633 -106 b 666 -33 686 45 705 122 b 711 144 676 144 671 124 b 656 62 640 0 617 -59 b 606 -89 592 -118 576 -145 b 562 -169 545 -195 521 -210 b 468 -242 413 -180 384 -141 b 349 -95 323 -46 302 6 b 279 62 260 119 235 174 b 326 232 412 307 474 394 b 528 472 605 611 522 695 b 483 736 420 721 379 690 b 334 656 298 606 270 556 b 214 457 183 344 159 232 b 158 231 157 231 156 230 b 127 214 110 187 127 155 b 131 147 136 138 140 129 b 131 78 123 27 115 -25 b 114 -33 112 -41 111 -50 b 107 -3 103 44 99 91 b 90 216 87 342 90 467 b 91 539 95 610 97 682 z m 261 457 b 280 505 304 552 335 595 b 362 632 404 687 456 685 b 514 683 508 625 496 585 b 482 538 454 492 423 454 b 387 409 346 368 303 332 b 271 306 235 280 201 257 b 216 325 235 392 261 457 z"},"T":{"x_min":0,"x_max":682,"ha":682,"o":"m 96 615 b 65 608 13 591 -15 613 b -30 625 -54 600 -38 587 b -16 570 13 571 40 574 b 73 577 105 585 138 593 b 202 608 267 624 331 639 b 346 643 360 646 375 649 b 375 647 374 644 375 641 b 387 537 402 433 414 328 b 426 227 441 126 446 23 b 447 20 447 16 447 13 b 440 7 432 1 425 -5 b 371 -52 265 -157 338 -231 b 370 -265 422 -251 453 -222 b 490 -186 504 -130 513 -82 b 520 -45 523 -7 525 31 b 543 44 561 57 579 71 b 617 99 659 129 679 175 b 688 196 658 204 649 185 b 628 140 580 111 540 82 b 536 79 531 75 526 71 b 526 136 521 202 516 266 b 506 397 493 528 474 658 b 473 662 472 667 470 670 b 555 688 641 701 726 700 b 785 700 882 690 906 625 b 914 605 947 620 940 639 b 920 693 861 716 809 726 b 745 739 679 733 615 725 b 556 718 498 708 440 696 b 435 697 429 697 423 696 b 416 695 409 692 402 688 b 337 673 273 657 208 641 b 171 632 134 623 96 615 z m 444 -124 b 439 -153 427 -230 380 -214 b 336 -199 353 -140 371 -113 b 392 -80 420 -53 449 -28 b 450 -60 449 -92 444 -124 z"},"P":{"x_min":0,"x_max":652,"ha":652,"o":"m 97 682 b 99 742 3 728 -4 677 b -22 542 -24 404 -18 268 b -13 133 1 -1 24 -134 b 30 -171 37 -208 48 -244 b 53 -262 58 -281 71 -295 b 83 -307 103 -309 116 -297 b 122 -291 127 -283 127 -276 b 127 -276 127 -276 127 -276 b 127 -283 128 -271 129 -268 b 130 -259 131 -251 130 -242 b 130 -240 130 -239 130 -237 b 151 -78 157 82 175 241 b 184 322 196 403 215 482 b 223 517 233 553 249 585 b 261 611 284 659 317 660 b 354 662 364 618 373 591 b 384 557 394 522 398 487 b 408 413 408 337 401 263 b 397 218 389 173 374 130 b 308 112 241 83 199 26 b 174 -8 165 -56 203 -85 b 239 -113 293 -102 330 -82 b 406 -43 448 37 472 116 b 540 129 609 134 678 141 b 700 143 702 177 677 175 b 612 169 546 164 482 153 b 500 233 504 318 497 399 b 490 483 473 579 416 643 b 395 667 361 693 329 696 b 289 699 259 667 239 636 b 191 565 175 476 160 393 b 133 239 126 84 113 -71 b 108 -17 103 37 99 91 b 90 216 87 342 90 467 b 91 539 95 610 97 682 z m 334 44 b 335 44 329 36 327 33 b 326 32 325 31 325 30 b 320 24 315 17 309 11 b 309 11 306 8 304 7 b 302 5 296 0 295 -1 b 286 -7 258 -27 250 -9 b 238 19 275 48 294 60 b 314 72 336 81 358 88 b 353 78 349 69 344 60 b 341 54 337 49 334 44 z"},"|":{"x_min":0,"x_max":215,"ha":215,"o":"m 153 209 b 154 332 161 454 164 577 b 165 618 100 608 95 573 b 74 448 59 323 53 196 b 48 73 47 -53 64 -176 b 73 -240 166 -216 165 -159 b 161 -36 152 86 153 209 z"},"t":{"x_min":0,"x_max":249,"ha":249,"o":"m 248 191 b 216 135 198 71 158 21 b 152 13 137 -3 125 1 b 115 4 112 21 110 29 b 101 61 96 94 94 127 b 88 201 89 276 91 350 b 92 377 93 405 94 432 b 106 432 119 432 131 432 b 151 431 162 465 139 465 b 124 466 110 466 96 466 b 97 504 97 542 94 580 b 90 637 3 626 -4 576 b -10 537 -13 499 -14 460 b -22 459 -30 458 -38 457 b -59 455 -60 422 -37 425 b -30 426 -22 427 -15 427 b -16 405 -16 383 -16 361 b -17 294 -17 225 -10 159 b -4 99 3 20 45 -28 b 67 -53 96 -60 128 -49 b 155 -39 172 -16 188 6 b 227 59 245 123 277 181 b 288 200 257 208 248 191 z"},"M":{"x_min":0,"x_max":966,"ha":966,"o":"m 545 625 b 530 599 517 572 506 545 b 473 464 452 379 432 294 b 433 348 432 402 428 456 b 425 507 419 559 406 608 b 395 647 376 687 336 701 b 295 715 260 682 239 651 b 214 612 197 567 183 523 b 152 426 134 325 118 224 b 111 177 104 130 98 83 b 94 145 91 208 88 271 b 83 414 88 558 100 701 b 102 726 75 742 53 741 b 29 740 1 721 -4 696 b -27 546 -25 394 -15 243 b -10 168 -3 95 6 21 b 11 -16 17 -52 23 -89 b 27 -108 30 -128 35 -147 b 39 -162 44 -179 61 -184 b 75 -189 93 -181 100 -167 b 100 -166 101 -166 101 -165 b 103 -161 104 -155 104 -149 b 106 -137 107 -124 107 -111 b 132 70 152 253 196 431 b 206 473 217 515 233 555 b 246 591 262 638 294 661 b 313 674 321 664 327 646 b 332 627 334 607 336 588 b 340 541 339 494 337 447 b 333 339 321 230 328 122 b 333 55 433 81 432 139 b 432 144 432 149 432 153 b 461 270 485 389 525 502 b 535 530 546 557 559 583 b 570 605 584 637 605 651 b 633 669 640 621 645 603 b 652 578 655 551 656 524 b 660 403 642 283 644 163 b 646 103 653 39 679 -15 b 700 -56 737 -98 786 -99 b 846 -101 892 -42 922 2 b 957 53 982 110 1006 167 b 1016 190 983 198 975 178 b 953 128 931 77 902 31 b 885 5 824 -86 787 -49 b 773 -36 772 -10 769 8 b 764 37 760 66 757 95 b 750 155 751 214 752 274 b 753 388 766 519 709 623 b 689 660 638 706 593 681 b 571 668 557 646 545 625 z"},"g":{"x_min":0,"x_max":422,"ha":422,"o":"m 430 181 b 395 154 361 125 328 95 b 328 110 327 126 327 141 b 323 216 324 292 315 367 b 312 394 290 411 263 406 b 234 401 216 378 213 350 b 213 348 213 347 213 345 b 207 352 200 358 193 363 b 162 382 125 379 93 364 b 24 330 -11 251 -20 179 b -28 112 -26 13 45 -20 b 75 -34 111 -16 133 6 b 157 30 171 65 184 96 b 196 128 206 160 216 192 b 216 185 217 177 217 170 b 221 110 225 51 228 -9 b 228 -9 228 -10 228 -10 b 213 -27 198 -45 185 -63 b 150 -109 118 -157 90 -207 b 61 -259 36 -316 31 -376 b 27 -426 48 -485 102 -497 b 152 -508 205 -470 234 -432 b 308 -335 323 -204 328 -85 b 330 -39 330 7 329 53 b 366 90 406 125 447 157 b 465 170 448 194 430 181 z m 178 181 b 170 154 161 127 150 101 b 140 77 128 48 110 29 b 102 20 99 18 91 28 b 84 37 80 48 77 59 b 70 83 71 109 71 135 b 72 185 85 232 111 275 b 120 291 134 307 155 316 b 177 326 195 302 206 282 b 197 248 189 214 178 181 z m 212 -328 b 206 -350 199 -372 190 -393 b 181 -413 170 -438 153 -453 b 136 -469 110 -466 93 -452 b 72 -434 66 -406 67 -379 b 68 -326 92 -273 117 -227 b 142 -180 172 -135 203 -93 b 212 -81 221 -70 230 -58 b 233 -148 233 -241 212 -328 z"},"j":{"x_min":0,"x_max":195,"ha":195,"o":"m 203 181 b 167 154 133 125 101 95 b 100 110 100 126 99 141 b 96 216 96 292 88 367 b 85 394 63 411 36 406 b 7 401 -12 378 -14 350 b -19 290 -14 229 -10 170 b -7 110 -2 51 0 -9 b 0 -9 0 -10 0 -10 b -15 -27 -29 -45 -43 -63 b -77 -109 -110 -157 -137 -207 b -166 -259 -191 -316 -196 -376 b -201 -426 -180 -485 -125 -497 b -76 -508 -22 -470 6 -432 b 81 -335 96 -204 101 -85 b 103 -39 103 7 102 53 b 139 90 179 125 220 157 b 237 170 220 194 203 181 z m -16 -328 b -21 -350 -28 -372 -37 -393 b -46 -413 -58 -438 -74 -453 b -92 -469 -117 -466 -134 -452 b -155 -434 -162 -406 -161 -379 b -159 -326 -135 -273 -110 -227 b -85 -180 -56 -135 -24 -93 b -15 -81 -7 -70 2 -58 b 5 -148 5 -241 -16 -328 z m 20 434 b 24 431 29 431 34 432 b 40 432 46 435 51 440 b 78 472 106 506 128 541 b 144 566 169 615 142 640 b 113 668 74 634 55 612 b 39 594 30 573 20 552 b 13 576 5 600 -6 622 b -13 636 -21 652 -37 655 b -59 660 -80 640 -86 621 b -97 586 -80 545 -62 515 b -41 480 -12 459 20 434 z"},"i":{"x_min":0,"x_max":247,"ha":247,"o":"m 247 185 b 224 147 203 107 177 72 b 164 56 150 39 133 28 b 125 23 113 16 104 22 b 98 27 94 38 91 45 b 84 64 84 85 82 105 b 80 128 81 151 81 174 b 82 222 88 270 92 317 b 93 342 68 358 46 356 b 23 355 -5 337 -9 312 b -16 252 -23 191 -14 130 b -7 83 6 4 59 -15 b 107 -31 156 0 187 34 b 223 76 249 127 276 175 b 287 194 256 202 247 185 z m 44 396 b 50 396 56 398 61 404 b 89 436 116 469 139 505 b 155 529 179 579 152 604 b 123 631 85 598 66 576 b 50 557 40 537 31 516 b 23 539 15 563 5 585 b -2 599 -10 615 -27 619 b -49 623 -69 604 -75 584 b -87 549 -69 509 -51 479 b -30 444 -1 422 30 398 b 34 394 40 394 44 396 z"},"y":{"x_min":0,"x_max":459,"ha":459,"o":"m 467 181 b 432 154 398 125 365 95 b 365 110 364 126 364 141 b 361 216 361 292 353 367 b 350 394 327 411 300 406 b 275 402 257 383 252 359 b 251 358 251 356 251 355 b 237 299 223 244 209 188 b 202 162 195 136 183 112 b 177 99 161 63 142 67 b 127 71 116 98 111 110 b 101 135 95 161 90 187 b 80 240 81 296 79 350 b 78 377 54 392 29 388 b 1 384 -17 361 -19 334 b -25 265 -18 191 3 125 b 21 70 65 -10 136 10 b 166 19 181 44 198 69 b 214 94 225 122 234 150 b 240 172 246 195 251 218 b 252 202 254 186 254 170 b 258 110 262 51 265 -9 b 265 -9 265 -10 265 -10 b 250 -27 236 -45 222 -63 b 187 -109 155 -157 127 -207 b 99 -259 73 -316 68 -376 b 64 -426 85 -485 139 -497 b 189 -508 242 -470 271 -432 b 346 -335 361 -204 365 -85 b 367 -39 367 7 367 53 b 404 90 443 125 485 157 b 502 170 485 194 467 181 z m 249 -328 b 244 -350 237 -372 227 -393 b 218 -413 207 -438 190 -453 b 173 -469 148 -466 131 -452 b 109 -434 103 -406 104 -379 b 106 -326 130 -273 154 -227 b 180 -180 209 -135 241 -93 b 249 -81 258 -70 267 -58 b 270 -148 270 -241 249 -328 z"},"@":{"x_min":0,"x_max":658,"ha":658,"o":"m 471 560 b 342 605 210 519 138 417 b 62 307 17 147 80 21 b 112 -43 168 -88 239 -101 b 319 -115 399 -87 466 -44 b 487 -31 467 -4 446 -17 b 396 -49 338 -72 278 -69 b 222 -66 171 -41 137 3 b 65 97 82 233 131 334 b 175 422 262 525 371 521 b 419 520 467 501 497 462 b 527 421 538 366 533 316 b 528 265 503 199 461 171 b 456 167 454 166 452 167 b 445 173 441 182 437 193 b 427 226 431 262 433 296 b 434 313 420 326 404 330 b 399 338 392 345 385 350 b 361 364 329 361 305 348 b 252 319 214 263 201 204 b 196 178 195 148 213 126 b 240 95 285 105 313 127 b 325 137 336 147 346 159 b 355 122 375 91 414 80 b 495 57 557 150 583 213 b 634 336 613 511 471 560 z m 286 185 b 286 185 287 184 287 183 b 286 183 286 184 286 185 z m 294 224 b 301 242 311 259 324 273 b 326 276 330 280 335 283 b 322 263 309 243 294 224 z"},".":{"x_min":0,"x_max":150,"ha":150,"o":"m 99 25 b 102 33 96 42 88 43 b 80 45 70 40 66 32 b 60 18 56 4 51 -10 b 46 -24 61 -35 73 -33 b 87 -31 97 -17 94 -3 b 93 3 93 2 95 9 b 96 15 97 20 99 25 z"},"p":{"x_min":0,"x_max":472,"ha":472,"o":"m 484 176 b 455 163 426 153 395 143 b 400 180 399 218 391 254 b 382 300 360 356 316 380 b 208 437 152 245 134 174 b 117 106 105 37 95 -33 b 94 -12 94 8 93 28 b 91 136 96 245 89 353 b 88 379 64 394 40 390 b 12 386 -5 363 -8 337 b -20 223 -14 107 -8 -7 b -5 -63 -1 -119 8 -175 b 12 -202 17 -230 26 -256 b 33 -279 45 -310 74 -309 b 87 -308 98 -300 98 -286 b 98 -287 103 -275 103 -273 b 105 -267 105 -258 105 -251 b 105 -243 105 -235 104 -228 b 113 -157 123 -86 133 -15 b 145 60 157 136 179 208 b 186 232 248 401 290 346 b 307 323 308 287 310 260 b 313 226 314 192 309 158 b 307 141 304 125 299 109 b 260 91 220 67 199 28 b 188 7 185 -20 201 -39 b 208 -49 216 -60 228 -65 b 244 -70 264 -67 279 -61 b 338 -39 366 24 382 79 b 385 89 388 99 390 109 b 425 120 460 131 494 147 b 512 156 505 186 484 176 z m 279 54 b 271 37 265 28 253 15 b 251 13 250 11 248 10 b 250 12 241 7 245 8 b 243 7 240 6 237 5 b 227 17 253 44 262 52 b 269 58 277 63 285 67 b 283 63 281 59 279 54 z"},"X":{"x_min":0,"x_max":643,"ha":643,"o":"m -161 -171 b -54 -53 60 59 169 175 b 173 165 177 155 182 144 b 215 67 261 -7 325 -62 b 355 -86 392 -106 432 -106 b 470 -106 511 -90 542 -68 b 577 -41 602 -3 623 34 b 648 77 667 121 683 168 b 690 187 658 187 652 170 b 639 133 623 96 604 62 b 586 29 566 -4 538 -30 b 511 -56 478 -72 442 -56 b 412 -43 389 -18 370 7 b 325 66 296 134 271 203 b 263 224 256 245 250 266 b 304 328 356 391 403 458 b 448 521 486 587 508 660 b 514 681 482 680 477 663 b 457 597 423 537 383 481 b 343 425 300 371 255 319 b 250 313 245 307 240 302 b 229 344 220 387 211 430 b 194 518 184 607 169 696 b 164 722 129 729 109 722 b 85 715 61 692 63 665 b 77 511 102 354 156 208 b 96 144 35 81 -26 18 b -80 -38 -134 -95 -187 -152 b -203 -170 -176 -188 -161 -171 z"},"*":{"x_min":0,"x_max":273,"ha":273,"o":"m 210 485 b 200 485 189 485 178 484 b 187 491 197 497 207 502 b 226 512 219 543 197 532 b 182 525 168 515 155 505 b 155 510 156 515 156 520 b 159 543 125 542 122 522 b 121 514 120 506 120 498 b 110 509 100 520 91 531 b 79 545 52 527 64 512 b 72 500 81 489 90 478 b 82 477 74 476 65 475 b 46 472 44 442 66 444 b 77 446 87 447 98 448 b 88 435 78 422 69 409 b 56 391 80 374 93 391 b 101 403 110 415 119 426 b 120 415 121 405 123 394 b 126 374 157 381 155 400 b 155 406 154 411 154 417 b 162 411 170 406 179 401 b 196 391 221 418 203 428 b 190 435 179 443 168 452 b 179 452 191 452 203 452 b 222 453 233 485 210 485 z"},"Y":{"x_min":0,"x_max":673,"ha":673,"o":"m 500 47 b 505 96 508 144 509 192 b 512 352 498 514 469 672 b 464 696 432 703 413 697 b 391 690 369 668 371 643 b 372 621 374 599 376 577 b 369 498 359 420 345 342 b 330 267 312 191 276 122 b 259 92 236 55 204 38 b 173 20 144 46 130 74 b 94 146 89 233 85 311 b 80 412 83 514 81 615 b 80 643 53 659 27 655 b -1 650 -23 626 -24 597 b -27 496 -25 395 -16 294 b -12 245 -5 196 8 149 b 19 106 37 57 66 24 b 96 -8 138 -30 183 -20 b 224 -11 253 19 276 52 b 324 124 352 207 370 291 b 378 331 385 371 391 412 b 396 361 401 311 403 260 b 408 166 406 73 396 -20 b 387 -26 378 -33 369 -39 b 317 -75 265 -115 224 -163 b 191 -202 156 -257 173 -311 b 191 -369 258 -367 305 -351 b 366 -331 406 -278 432 -222 b 464 -150 484 -72 495 7 b 520 23 545 39 570 56 b 623 92 680 129 711 186 b 721 204 695 209 686 195 b 649 141 590 105 536 70 b 524 62 512 55 500 47 z m 335 -277 b 322 -297 302 -318 279 -325 b 254 -331 223 -328 210 -303 b 187 -255 235 -198 265 -167 b 303 -127 347 -93 392 -62 b 389 -79 387 -96 384 -114 b 375 -169 366 -230 335 -277 z"},"c":{"x_min":0,"x_max":344,"ha":344,"o":"m 353 189 b 314 156 281 117 245 80 b 228 62 209 45 187 30 b 169 18 136 -4 117 18 b 85 56 82 107 82 155 b 82 211 96 266 117 314 b 124 328 131 343 140 356 b 142 360 147 370 154 373 b 166 376 176 360 179 352 b 186 335 185 317 185 300 b 185 276 220 286 221 306 b 223 341 222 373 200 402 b 178 430 141 435 108 423 b 31 395 -4 299 -15 224 b -26 152 -27 62 24 4 b 49 -24 80 -38 117 -34 b 151 -30 184 -12 211 8 b 271 52 313 117 370 166 b 386 180 369 203 353 189 z"},"!":{"x_min":0,"x_max":201,"ha":201,"o":"m 149 347 b 147 396 144 445 137 493 b 134 516 132 541 124 564 b 121 572 117 582 110 588 b 103 595 97 595 88 597 b 82 598 74 594 71 590 b 71 589 70 589 70 588 b 66 583 63 575 67 569 b 62 484 61 397 58 311 b 56 218 48 124 51 31 b 51 6 75 -8 98 -4 b 125 0 141 22 143 47 b 153 146 151 248 149 347 z m 102 -32 b 87 -35 75 -47 70 -61 b 64 -82 62 -112 70 -132 b 84 -165 130 -150 138 -121 b 143 -99 141 -71 135 -50 b 130 -36 115 -30 102 -32 z"},"/":{"x_min":0,"x_max":479,"ha":479,"o":"m 365 576 b 336 551 318 519 299 487 b 282 458 266 429 251 399 b 221 341 195 283 169 224 b 144 163 120 101 98 39 b 86 8 76 -23 67 -55 b 62 -69 58 -84 55 -99 b 53 -107 51 -116 50 -124 b 49 -130 52 -138 51 -144 b 48 -166 75 -165 84 -150 b 88 -145 95 -140 98 -134 b 103 -127 108 -119 112 -111 b 120 -97 127 -83 133 -69 b 146 -40 159 -12 172 17 b 197 77 223 136 250 195 b 276 254 305 312 335 369 b 350 396 365 424 381 451 b 398 480 418 509 428 542 b 438 578 390 598 365 576 z"},"[":{"x_min":0,"x_max":323,"ha":323,"o":"m 244 -121 b 234 -121 220 -126 210 -124 b 206 -124 202 -119 198 -114 b 185 -95 177 -71 171 -48 b 157 5 153 61 150 116 b 143 235 153 354 162 473 b 164 503 167 534 172 564 b 174 574 172 596 178 604 b 182 609 202 608 211 608 b 229 608 241 638 218 640 b 194 642 166 641 145 625 b 118 605 107 566 98 536 b 76 468 67 396 60 325 b 51 252 48 179 51 107 b 53 37 58 -37 80 -104 b 91 -138 108 -176 138 -197 b 179 -224 231 -208 263 -176 b 281 -159 273 -120 244 -121 z"},"6":{"x_min":0,"x_max":400,"ha":400,"o":"m 155 -103 b 238 -143 340 -71 350 17 b 355 63 324 97 284 114 b 241 133 190 130 148 109 b 147 109 147 109 146 109 b 141 197 171 296 202 372 b 217 407 233 443 254 476 b 263 490 274 503 285 516 b 291 522 297 528 303 534 b 305 536 310 541 313 542 b 318 546 313 546 322 543 b 336 538 356 560 340 569 b 252 618 175 498 140 432 b 93 344 60 245 51 145 b 44 56 66 -60 155 -103 z m 158 78 b 188 92 222 96 253 85 b 282 76 315 55 310 20 b 307 -9 285 -34 257 -42 b 230 -49 209 -41 193 -20 b 170 8 157 40 150 75 b 153 76 155 76 158 78 z"},"r":{"x_min":0,"x_max":386,"ha":386,"o":"m 388 188 b 373 172 365 152 356 132 b 346 111 337 90 327 70 b 308 29 286 -14 254 -47 b 250 -51 240 -61 236 -59 b 228 -57 223 -42 221 -35 b 215 -13 213 11 211 33 b 208 82 213 131 216 180 b 217 202 195 217 175 216 b 169 215 162 213 155 210 b 136 206 112 196 94 205 b 86 208 80 214 75 220 b 108 256 128 310 126 358 b 124 385 115 412 88 421 b 60 430 30 409 11 390 b -33 347 -35 267 -10 214 b 3 186 26 165 58 161 b 80 158 103 164 126 171 b 118 110 114 49 129 -12 b 143 -64 181 -119 241 -95 b 288 -77 317 -23 339 19 b 352 43 363 68 374 93 b 385 118 393 150 413 170 b 428 187 403 203 388 188 z m 58 249 b 47 278 50 312 57 342 b 59 352 62 375 72 381 b 92 394 92 343 91 334 b 88 305 77 273 58 249 z"},"2":{"x_min":0,"x_max":479,"ha":479,"o":"m 60 -134 b 112 -164 165 -142 210 -107 b 220 -106 230 -105 240 -104 b 289 -101 338 -99 386 -94 b 409 -91 411 -56 385 -58 b 341 -63 297 -64 252 -67 b 263 -55 273 -43 281 -32 b 331 31 368 103 394 179 b 420 254 439 340 424 419 b 412 484 353 554 280 539 b 203 524 130 430 158 351 b 166 331 198 346 191 364 b 171 423 226 499 287 506 b 357 514 365 421 360 372 b 353 312 333 252 312 196 b 290 141 261 86 227 41 b 188 -13 145 -62 80 -80 b 80 -80 81 -80 81 -80 b 71 -82 62 -87 56 -96 b 49 -107 46 -126 60 -134 z"},"{":{"x_min":0,"x_max":424,"ha":424,"o":"m 373 -153 b 369 -142 356 -134 344 -137 b 326 -142 306 -145 289 -136 b 273 -128 262 -112 254 -97 b 233 -57 223 -10 218 35 b 211 87 208 140 198 192 b 192 220 183 251 165 274 b 194 321 215 371 235 424 b 246 455 256 487 266 519 b 271 534 275 549 281 564 b 286 581 289 600 311 596 b 328 594 343 624 323 629 b 288 637 255 613 236 585 b 213 553 196 517 177 482 b 142 413 111 343 63 285 b 44 262 44 224 76 213 b 78 212 79 212 80 212 b 80 211 81 211 82 210 b 76 214 85 206 86 204 b 89 201 89 201 89 201 b 89 201 89 201 91 197 b 93 193 94 188 96 183 b 103 159 107 134 110 109 b 116 54 118 -2 132 -56 b 145 -105 170 -156 211 -187 b 253 -219 319 -222 360 -186 b 369 -178 377 -166 373 -153 z"},"9":{"x_min":0,"x_max":531,"ha":531,"o":"m 190 205 b 244 228 284 281 314 330 b 329 355 342 382 352 409 b 362 435 369 467 385 489 b 389 494 388 492 390 486 b 392 480 397 473 399 466 b 405 452 409 439 411 424 b 416 393 418 362 419 331 b 421 269 417 207 406 145 b 400 113 392 81 381 51 b 373 29 359 -4 340 -19 b 326 -30 307 -10 298 2 b 280 27 271 59 268 89 b 264 123 213 116 208 86 b 199 27 215 -37 262 -77 b 314 -122 381 -90 415 -40 b 449 10 464 71 473 129 b 482 192 484 254 477 317 b 471 376 457 440 432 494 b 423 514 409 536 384 533 b 369 531 358 522 349 511 b 338 522 325 532 312 538 b 287 550 255 548 230 539 b 178 523 133 485 102 442 b 68 393 41 330 53 270 b 66 206 133 180 190 205 z m 151 365 b 162 391 176 414 194 434 b 224 467 284 512 328 481 b 327 480 326 478 326 477 b 308 452 292 427 276 400 b 262 377 249 354 232 332 b 217 314 200 296 180 285 b 173 281 164 277 157 279 b 154 280 152 281 151 283 b 150 284 144 292 143 294 b 134 314 143 345 151 365 z"}," ":{"x_min":0,"x_max":279,"ha":279,"o":""},"I":{"x_min":0,"x_max":452,"ha":452,"o":"m 219 591 b 215 619 211 652 194 675 b 179 694 159 712 135 717 b 77 732 29 690 -27 685 b -47 683 -49 652 -27 654 b 1 656 26 666 52 676 b 75 684 102 692 126 684 b 153 674 149 646 149 622 b 148 591 147 561 145 530 b 137 410 119 291 107 171 b 95 52 83 -75 111 -193 b 125 -248 166 -300 228 -289 b 285 -278 316 -238 342 -191 b 406 -77 436 51 490 169 b 500 191 468 199 459 180 b 411 78 381 -31 333 -132 b 321 -156 309 -181 294 -203 b 284 -216 259 -247 242 -237 b 235 -233 226 -221 222 -214 b 217 -206 215 -194 213 -184 b 206 -158 205 -130 203 -104 b 193 13 203 129 214 246 b 226 360 235 476 219 591 z"},"H":{"x_min":0,"x_max":680,"ha":680,"o":"m 140 85 b 126 71 112 56 99 40 b 95 73 92 107 89 141 b 80 260 79 380 86 499 b 90 567 97 634 103 702 b 105 726 79 742 58 741 b 35 740 9 722 4 697 b -18 575 -24 449 -23 325 b -21 201 -9 77 14 -45 b 20 -78 27 -110 35 -143 b 40 -159 44 -176 49 -192 b 55 -210 64 -226 73 -242 b 79 -253 96 -253 106 -249 b 118 -244 127 -232 127 -219 b 127 -217 127 -216 127 -214 b 127 -214 127 -214 127 -214 b 127 -155 115 -97 108 -39 b 106 -28 105 -18 104 -7 b 105 -5 106 -4 107 -3 b 137 37 172 73 208 108 b 239 139 272 169 305 199 b 305 188 306 178 307 168 b 311 113 318 58 328 4 b 336 -38 346 -78 368 -115 b 391 -156 434 -196 484 -194 b 533 -193 567 -157 591 -118 b 648 -28 672 77 717 172 b 727 191 698 198 689 182 b 648 105 625 20 585 -58 b 570 -88 549 -135 517 -150 b 500 -157 486 -141 475 -129 b 463 -116 453 -100 447 -83 b 434 -48 427 -11 422 26 b 417 72 412 118 409 164 b 406 206 404 249 406 292 b 411 298 417 304 423 309 b 487 373 546 443 591 521 b 613 560 631 602 644 645 b 654 682 667 725 661 763 b 659 780 653 797 641 809 b 624 826 598 827 575 822 b 528 812 489 781 458 746 b 392 671 349 575 327 479 b 308 401 302 321 303 241 b 248 190 191 140 140 85 z m 511 683 b 529 712 554 742 583 763 b 595 771 610 779 619 763 b 626 748 622 726 621 711 b 602 565 509 444 408 341 b 410 376 415 411 422 446 b 438 529 466 610 511 683 z"},"4":{"x_min":0,"x_max":395,"ha":395,"o":"m 228 180 b 231 133 234 87 241 42 b 248 -7 252 -68 284 -107 b 302 -130 338 -110 339 -84 b 340 -34 340 15 339 65 b 337 117 335 168 335 219 b 335 320 342 420 345 520 b 346 545 322 561 300 560 b 276 558 250 541 245 516 b 227 418 223 316 227 216 b 202 203 175 191 150 181 b 131 174 105 167 94 190 b 85 209 88 236 89 256 b 92 354 127 448 125 546 b 124 568 91 560 91 541 b 92 427 40 316 52 202 b 61 103 155 141 228 180 z"},"D":{"x_min":0,"x_max":823,"ha":823,"o":"m 226 -229 b 264 -253 304 -269 349 -266 b 394 -263 437 -243 471 -214 b 543 -155 587 -66 616 21 b 662 34 706 51 749 74 b 775 88 799 104 822 122 b 842 137 868 155 866 184 b 865 203 837 195 836 179 b 836 165 813 151 803 143 b 790 134 777 125 764 117 b 737 100 708 86 678 74 b 661 68 645 62 628 57 b 651 137 663 221 666 304 b 669 400 661 495 637 588 b 618 661 589 750 520 791 b 446 836 358 789 305 733 b 244 669 206 583 176 502 b 137 399 109 292 88 185 b 86 177 85 169 83 161 b 82 193 81 226 80 259 b 78 403 81 547 88 691 b 89 717 60 732 37 728 b 10 724 -9 701 -11 674 b -22 527 -24 379 -17 232 b -13 159 -8 86 0 14 b 4 -21 9 -57 15 -92 b 21 -125 28 -162 56 -184 b 76 -201 107 -178 107 -155 b 107 -136 105 -116 101 -96 b 134 -148 173 -196 226 -229 z m 486 -47 b 482 -54 478 -62 474 -69 b 471 -74 467 -80 464 -85 b 463 -86 458 -95 457 -96 b 446 -111 434 -126 421 -140 b 411 -150 414 -148 404 -155 b 401 -158 398 -160 395 -162 b 395 -162 386 -168 386 -168 b 355 -186 317 -189 281 -181 b 205 -165 155 -98 115 -34 b 245 -20 379 -22 508 -2 b 501 -17 494 -32 486 -47 z m 270 628 b 306 692 361 767 440 774 b 524 782 549 694 561 629 b 577 544 584 458 582 371 b 579 286 568 201 548 119 b 540 90 532 61 521 33 b 513 31 505 30 497 29 b 364 10 229 13 96 -3 b 106 131 136 263 174 391 b 198 473 228 553 270 628 z"},"^":{"x_min":0,"x_max":294,"ha":294,"o":"m 242 420 b 226 470 222 588 141 563 b 107 553 83 519 68 489 b 61 476 55 462 52 447 b 48 431 51 418 52 402 b 53 385 76 383 85 395 b 91 404 100 410 107 419 b 114 427 120 436 126 445 b 130 449 133 454 136 458 b 138 451 139 445 140 438 b 145 415 150 396 162 375 b 172 356 202 358 217 367 b 235 378 249 399 242 420 z m 128 485 b 126 487 127 489 128 485 z m 157 482 b 157 482 157 482 157 483 b 163 490 162 484 157 482 z"},"0":{"x_min":0,"x_max":441,"ha":441,"o":"m 90 246 b 96 242 102 238 108 235 b 96 183 88 130 91 77 b 95 15 113 -52 175 -80 b 240 -110 303 -65 338 -11 b 369 37 380 97 386 153 b 394 216 393 278 380 340 b 369 394 346 454 308 495 b 271 535 217 546 168 522 b 120 499 84 454 65 405 b 44 352 39 284 90 246 z m 100 401 b 116 439 145 476 184 493 b 226 510 270 490 292 450 b 314 412 316 358 319 315 b 322 269 319 222 312 176 b 305 135 297 90 280 52 b 273 36 265 20 253 8 b 245 0 240 -6 228 -2 b 188 10 187 71 186 104 b 186 147 194 190 201 232 b 214 238 225 245 235 255 b 250 271 225 287 211 273 b 210 272 209 271 208 270 b 215 327 131 323 118 273 b 118 272 117 271 117 270 b 113 273 110 275 107 278 b 73 310 83 364 100 401 z"},"F":{"x_min":0,"x_max":764,"ha":764,"o":"m 356 649 b 352 617 348 585 345 553 b 286 530 227 504 169 475 b 100 440 32 402 -34 360 b -51 349 -39 323 -19 331 b 53 361 138 380 216 370 b 275 363 312 318 333 267 b 333 259 333 252 333 245 b 334 112 341 -20 370 -150 b 384 -208 403 -272 443 -317 b 479 -357 527 -388 582 -389 b 627 -391 679 -373 709 -337 b 743 -295 742 -236 721 -189 b 677 -91 576 -48 474 -46 b 519 -14 564 17 608 49 b 639 71 669 93 700 115 b 726 134 752 153 772 179 b 786 196 761 212 748 196 b 727 170 698 151 670 131 b 642 111 613 91 584 70 b 540 40 496 9 452 -21 b 442 72 441 166 442 259 b 443 358 445 456 446 555 b 524 581 603 602 683 617 b 721 625 759 631 797 633 b 807 634 882 638 882 626 b 883 594 935 606 931 634 b 927 661 904 672 879 673 b 843 674 807 670 772 666 b 699 658 628 642 557 622 b 520 612 484 601 447 589 b 447 611 448 632 448 654 b 449 708 362 695 356 649 z m 675 -187 b 698 -225 711 -282 679 -319 b 651 -351 607 -351 572 -331 b 489 -284 471 -169 459 -83 b 543 -82 628 -111 675 -187 z m 333 340 b 309 372 277 395 236 402 b 194 410 149 406 107 400 b 102 400 98 399 93 398 b 173 443 257 483 342 517 b 337 458 334 399 333 340 z"},"`":{"x_min":0,"x_max":177,"ha":177,"o":"m 123 449 b 124 473 121 497 120 521 b 119 551 121 581 122 611 b 123 630 102 641 85 638 b 66 635 51 618 51 599 b 49 562 49 525 56 489 b 60 472 65 454 74 439 b 82 426 89 422 104 420 b 117 418 134 439 123 449 z"},"k":{"x_min":0,"x_max":467,"ha":467,"o":"m 465 158 b 445 124 424 89 392 65 b 378 53 359 44 339 43 b 322 42 309 51 296 61 b 267 83 247 113 229 145 b 220 162 213 180 203 197 b 197 207 187 212 179 218 b 217 239 257 260 289 289 b 305 304 322 322 327 345 b 331 363 323 385 305 392 b 262 410 210 359 187 329 b 155 289 131 242 111 196 b 105 181 100 166 94 152 b 94 156 94 161 93 166 b 91 204 88 243 86 282 b 131 396 173 511 203 630 b 221 702 235 776 239 850 b 241 886 239 924 233 960 b 228 986 218 1010 191 1018 b 150 1031 111 1006 87 974 b 56 934 39 886 24 838 b -13 716 -22 585 -22 458 b -22 371 -16 285 -6 199 b -2 156 5 112 12 69 b 15 47 20 26 24 4 b 29 -19 39 -39 50 -59 b 59 -78 87 -72 91 -52 b 94 -35 97 -18 100 -1 b 102 15 101 31 100 47 b 108 85 118 124 132 162 b 133 154 136 146 137 139 b 143 116 153 92 165 71 b 190 30 235 -4 285 -6 b 330 -7 374 8 410 36 b 447 65 472 106 496 147 b 508 167 476 175 465 158 z m 82 364 b 82 369 82 374 81 379 b 77 508 82 638 104 766 b 110 806 118 846 130 885 b 131 890 133 895 135 900 b 135 902 136 904 137 906 b 137 907 137 908 137 908 b 140 914 142 920 144 927 b 141 920 146 932 147 934 b 149 938 151 943 154 947 b 154 948 157 953 158 954 b 159 957 162 961 163 963 b 164 963 167 967 169 969 b 170 970 171 971 171 971 b 172 971 172 971 173 971 b 173 971 178 971 176 972 b 181 970 184 966 186 962 b 201 935 202 897 201 867 b 201 797 188 727 173 659 b 151 558 118 461 82 364 z m 209 306 b 223 324 240 341 260 353 b 269 357 288 368 292 353 b 294 341 284 330 277 322 b 249 292 211 271 174 252 b 185 270 196 289 209 306 z"},"u":{"x_min":0,"x_max":498,"ha":498,"o":"m 497 185 b 475 147 453 107 427 72 b 414 56 400 39 383 28 b 375 23 363 16 354 22 b 349 27 344 38 342 45 b 335 64 334 85 332 105 b 331 128 331 151 331 174 b 332 222 338 270 342 317 b 344 342 318 358 296 356 b 275 355 248 339 242 316 b 234 300 229 280 224 265 b 214 238 205 210 196 183 b 187 155 178 128 166 101 b 161 89 156 78 150 66 b 146 59 135 38 126 38 b 111 38 105 66 103 77 b 97 104 94 131 91 158 b 86 217 89 276 87 334 b 86 361 60 377 35 373 b 6 368 -12 345 -15 317 b -21 248 -22 177 -6 109 b 7 56 40 -38 113 -9 b 171 14 193 73 213 127 b 220 147 226 166 232 186 b 232 167 233 149 236 130 b 243 83 256 4 310 -15 b 357 -31 407 0 437 34 b 473 76 499 127 526 175 b 537 194 507 202 497 185 z"},"]":{"x_min":0,"x_max":288,"ha":288,"o":"m 237 136 b 235 275 237 422 198 557 b 189 589 173 625 138 636 b 112 644 77 635 57 618 b 40 603 56 580 75 593 b 102 613 115 574 116 553 b 119 519 123 484 126 450 b 132 376 133 303 134 229 b 134 155 136 80 133 6 b 131 -28 130 -63 124 -96 b 122 -104 120 -113 117 -121 b 118 -118 111 -131 112 -130 b 110 -133 108 -135 106 -137 b 109 -134 108 -134 104 -138 b 102 -138 97 -139 96 -139 b 51 -146 33 -216 87 -223 b 167 -234 219 -153 228 -85 b 238 -12 239 62 237 136 z"},"U":{"x_min":0,"x_max":828,"ha":828,"o":"m 541 681 b 517 677 498 659 491 636 b 491 635 490 634 490 632 b 466 514 445 396 427 278 b 411 168 400 55 362 -49 b 353 -75 342 -99 329 -123 b 317 -144 303 -169 281 -181 b 237 -204 208 -152 190 -121 b 165 -75 153 -22 141 29 b 129 83 121 139 114 195 b 97 328 92 463 72 596 b 63 659 -28 636 -27 579 b -25 450 -9 319 9 191 b 26 72 48 -57 114 -161 b 142 -207 191 -251 249 -245 b 306 -240 346 -192 367 -143 b 416 -35 436 85 452 201 b 464 285 476 368 490 451 b 491 424 492 397 493 371 b 497 293 499 215 512 139 b 525 69 548 -9 598 -62 b 624 -89 658 -106 696 -101 b 729 -97 758 -73 778 -49 b 803 -18 819 18 832 54 b 846 92 861 135 867 175 b 869 193 845 196 839 181 b 826 152 820 120 810 89 b 800 58 788 27 771 -1 b 758 -23 737 -57 708 -52 b 681 -48 663 -15 654 7 b 603 128 607 261 606 390 b 605 473 602 556 596 640 b 594 668 569 685 541 681 z"},"o":{"x_min":0,"x_max":319,"ha":319,"o":"m 332 200 b 299 183 262 171 224 165 b 228 189 228 214 227 238 b 223 286 215 342 186 382 b 158 421 111 437 66 419 b 22 401 -8 355 -15 309 b -20 282 -16 256 -5 232 b -9 227 -11 221 -12 214 b -18 161 -21 104 -1 53 b 18 4 61 -42 118 -20 b 163 -2 190 48 206 91 b 211 105 215 118 219 133 b 262 138 305 153 341 171 b 359 181 352 210 332 200 z m 141 42 b 107 2 81 60 76 88 b 72 109 72 131 73 152 b 106 136 144 129 182 130 b 175 97 161 66 141 42 z m 188 162 b 157 162 125 168 96 181 b 89 184 83 188 76 192 b 77 201 78 210 79 219 b 81 241 57 256 37 254 b 34 254 31 254 27 253 b 13 288 15 329 43 363 b 69 395 113 403 144 373 b 173 346 182 300 187 262 b 192 231 193 197 188 162 z"},"N":{"x_min":0,"x_max":692,"ha":692,"o":"m 94 498 b 100 570 113 644 107 716 b 105 737 88 751 67 750 b 45 749 26 733 20 712 b -2 638 -6 557 -12 480 b -18 407 -22 334 -22 260 b -22 188 -19 114 -9 42 b 1 -31 13 -108 54 -171 b 69 -194 112 -173 108 -148 b 107 -140 106 -132 105 -124 b 121 25 141 174 175 321 b 193 398 214 475 243 548 b 256 583 272 617 294 647 b 302 660 314 674 329 678 b 352 684 354 664 358 647 b 373 573 374 495 371 420 b 368 340 362 261 358 181 b 355 99 354 19 368 -62 b 380 -129 406 -216 485 -224 b 568 -232 616 -149 646 -85 b 683 -7 708 75 732 157 b 739 179 705 179 699 160 b 676 86 654 12 622 -59 b 606 -92 590 -126 565 -153 b 554 -165 540 -177 523 -179 b 508 -180 503 -167 497 -155 b 483 -125 478 -91 474 -59 b 470 -20 467 19 465 57 b 461 137 465 216 467 295 b 469 374 469 453 458 532 b 453 569 446 609 430 643 b 415 674 398 702 363 710 b 292 727 251 649 227 596 b 195 526 173 451 154 377 b 124 260 105 142 89 22 b 88 37 87 51 86 66 b 80 138 80 209 81 281 b 83 354 87 426 94 498 z"},"+":{"x_min":0,"x_max":279,"ha":279,"o":"m 216 191 b 205 190 193 190 182 189 b 182 212 183 236 183 259 b 185 309 104 297 99 255 b 96 230 94 205 94 181 b 91 180 88 180 86 179 b 74 178 63 177 55 167 b 41 151 62 135 76 146 b 82 148 88 149 94 150 b 94 144 94 138 95 132 b 98 93 100 48 120 15 b 135 -9 169 11 174 31 b 185 67 180 109 181 146 b 181 150 181 153 181 157 b 190 157 199 157 208 158 b 228 158 239 191 216 191 z"},"G":{"x_min":0,"x_max":597,"ha":597,"o":"m 322 489 b 302 485 300 452 323 457 b 376 469 416 507 440 555 b 466 605 483 677 444 725 b 402 777 328 764 273 742 b 215 718 163 670 124 621 b 39 517 -14 382 -29 249 b -36 183 -38 103 5 47 b 42 -3 108 -7 163 13 b 228 35 278 94 315 150 b 341 189 361 232 378 276 b 385 200 393 125 395 49 b 360 29 325 10 290 -9 b 193 -63 78 -135 43 -247 b 25 -301 42 -356 87 -391 b 134 -428 192 -429 247 -414 b 371 -379 436 -256 463 -138 b 479 -70 486 -1 486 69 b 539 103 589 140 635 185 b 651 201 625 217 611 202 b 572 165 530 133 486 105 b 484 186 475 267 464 346 b 457 396 391 387 376 350 b 373 348 372 346 371 343 b 336 248 292 147 213 80 b 178 50 123 19 82 58 b 47 92 50 157 53 201 b 56 255 69 310 86 361 b 102 413 124 462 151 508 b 175 548 204 585 238 621 b 254 638 268 651 286 666 b 305 680 324 698 346 707 b 373 718 405 712 421 688 b 440 660 433 624 423 595 b 408 548 373 500 322 489 z m 392 -57 b 385 -159 364 -283 280 -352 b 238 -387 182 -402 132 -375 b 83 -350 60 -299 78 -246 b 96 -194 140 -151 182 -117 b 223 -84 268 -56 314 -31 b 341 -16 368 -1 395 14 b 395 -9 394 -33 392 -57 z"},"q":{"x_min":0,"x_max":417,"ha":417,"o":"m 445 175 b 459 188 438 209 424 196 b 387 162 351 128 316 94 b 316 111 316 128 316 145 b 317 184 320 224 321 264 b 321 304 324 346 314 385 b 301 431 234 406 226 370 b 224 359 222 348 221 336 b 213 346 204 356 193 363 b 162 382 125 379 93 364 b 24 330 -11 251 -20 179 b -28 112 -26 13 45 -20 b 75 -34 111 -16 133 6 b 157 30 171 65 184 96 b 194 123 204 151 212 179 b 211 157 211 134 211 112 b 211 29 221 -56 242 -137 b 251 -173 263 -215 290 -243 b 314 -269 348 -280 380 -261 b 441 -225 441 -155 430 -92 b 423 -54 409 -17 379 10 b 366 21 351 30 334 34 b 329 36 323 36 318 36 b 318 41 318 46 317 51 b 359 94 401 135 445 175 z m 178 181 b 170 154 161 127 150 101 b 140 77 128 48 110 29 b 102 20 99 18 91 28 b 84 37 80 48 77 59 b 70 83 71 109 71 135 b 72 185 85 232 111 275 b 120 291 134 307 155 316 b 177 326 195 302 206 282 b 197 248 189 214 178 181 z m 340 -7 b 365 -23 380 -49 388 -76 b 396 -103 399 -133 399 -161 b 399 -174 391 -233 367 -221 b 360 -218 355 -206 352 -199 b 347 -184 343 -169 340 -154 b 333 -122 329 -90 326 -58 b 324 -38 322 -19 320 0 b 327 -1 334 -3 340 -7 z"},"d":{"x_min":0,"x_max":511,"ha":511,"o":"m 509 192 b 495 147 481 102 459 60 b 449 40 437 20 420 4 b 414 -2 407 -7 399 -10 b 384 -16 377 -5 370 7 b 337 65 329 136 322 201 b 315 267 312 332 312 397 b 362 528 418 656 445 793 b 453 831 458 869 461 907 b 463 948 464 991 451 1030 b 438 1064 406 1080 372 1063 b 335 1046 311 1004 296 968 b 261 888 242 800 229 715 b 216 625 209 536 206 445 b 205 415 205 384 206 353 b 202 356 197 360 193 363 b 162 382 125 379 93 364 b 24 330 -11 251 -20 179 b -28 112 -26 13 45 -20 b 75 -34 111 -16 133 6 b 157 30 171 65 184 96 b 198 131 209 167 219 204 b 220 198 221 192 222 186 b 235 113 253 20 316 -27 b 345 -48 383 -54 415 -38 b 440 -25 459 -2 474 22 b 505 73 522 133 539 190 b 545 210 514 209 509 192 z m 329 652 b 335 727 344 801 356 874 b 362 909 370 942 381 976 b 385 989 389 1004 395 1016 b 405 1035 412 1012 416 1001 b 426 966 425 930 423 895 b 420 858 415 822 407 786 b 387 688 352 594 316 501 b 319 551 324 602 329 652 z m 178 181 b 170 154 161 127 150 101 b 140 77 128 48 110 29 b 102 20 99 18 91 28 b 84 37 80 48 77 59 b 70 83 71 109 71 135 b 72 185 85 232 111 275 b 120 291 134 307 155 316 b 177 326 195 302 206 282 b 197 248 189 214 178 181 z"},"1":{"x_min":0,"x_max":336,"ha":336,"o":"m 79 419 b 93 439 186 549 207 497 b 216 473 212 438 210 414 b 208 381 204 349 200 317 b 183 186 160 54 164 -78 b 164 -106 191 -123 217 -118 b 245 -114 269 -89 269 -60 b 268 58 279 175 284 293 b 286 350 291 414 274 470 b 261 511 224 557 176 543 b 124 528 81 476 52 433 b 42 416 69 404 79 419 z"},"5":{"x_min":0,"x_max":511,"ha":511,"o":"m 56 519 b 97 493 143 498 188 506 b 169 481 152 453 136 427 b 117 396 80 354 94 315 b 111 271 169 290 205 289 b 239 289 268 276 292 251 b 372 170 375 -2 254 -44 b 221 -55 186 -45 165 -16 b 137 22 157 72 173 111 b 183 135 149 144 140 123 b 112 59 92 -15 149 -68 b 203 -119 283 -118 342 -78 b 463 1 465 187 381 293 b 356 324 323 353 284 366 b 262 373 239 376 216 375 b 208 375 201 375 194 374 b 202 389 209 403 216 417 b 231 447 251 479 257 512 b 257 514 257 516 257 518 b 287 522 317 525 346 524 b 375 523 419 522 427 488 b 432 467 464 483 461 502 b 448 569 344 559 295 555 b 258 552 221 545 185 538 b 150 531 111 525 79 546 b 63 556 39 530 56 519 z"}}}
